<svg width="21" height="21" viewBox="0 0 21 21" fill="none" xmlns="http://www.w3.org/2000/svg">
<g clip-path="url(#clip0_747_8726)">
<path d="M19.7355 11.9542L18.073 5.97272C17.5858 4.22039 16.5267 2.68122 15.0642 1.59988C13.6017 0.518544 11.8198 -0.0429136 10.0016 0.00475648C8.18338 0.0524266 6.43328 0.706489 5.02948 1.86298C3.62568 3.01947 2.64873 4.61201 2.25392 6.38747L0.966798 12.1756C0.824624 12.8152 0.827911 13.4785 0.976417 14.1166C1.12492 14.7548 1.41485 15.3514 1.82481 15.8625C2.23476 16.3735 2.75427 16.786 3.34497 17.0694C3.93567 17.3529 4.58249 17.5 5.23767 17.5H6.21242C6.41325 18.489 6.94981 19.3781 7.7312 20.0168C8.51258 20.6555 9.49074 21.0044 10.4999 21.0044C11.5091 21.0044 12.4873 20.6555 13.2686 20.0168C14.05 19.3781 14.5866 18.489 14.7874 17.5H15.5207C16.1951 17.5 16.8605 17.3441 17.4647 17.0445C18.0689 16.7448 18.5957 16.3095 19.0039 15.7726C19.4121 15.2357 19.6906 14.6116 19.8176 13.9493C19.9447 13.2869 19.9169 12.6041 19.7364 11.9542H19.7355ZM10.4999 19.25C9.95894 19.2477 9.43187 19.0784 8.99081 18.7651C8.54975 18.4519 8.21625 18.01 8.03592 17.5H12.9639C12.7836 18.01 12.4501 18.4519 12.009 18.7651C11.568 19.0784 11.0409 19.2477 10.4999 19.25V19.25ZM17.6102 14.7131C17.3663 15.0366 17.0505 15.2987 16.6876 15.4787C16.3247 15.6587 15.9249 15.7516 15.5198 15.75H5.23767C4.84461 15.7499 4.45658 15.6616 4.10222 15.4915C3.74786 15.3214 3.43623 15.0739 3.19031 14.7673C2.9444 14.4606 2.77049 14.1027 2.68141 13.7198C2.59234 13.337 2.59038 12.939 2.67567 12.5553L3.96192 6.76635C4.27198 5.37178 5.03932 4.12088 6.14195 3.21249C7.24458 2.30411 8.61922 1.79037 10.0473 1.75296C11.4755 1.71555 12.8751 2.1566 14.0238 3.00601C15.1725 3.85542 16.0043 5.06443 16.3869 6.44085L18.0494 12.4223C18.1593 12.812 18.1768 13.222 18.1005 13.6196C18.0243 14.0173 17.8564 14.3917 17.6102 14.7131V14.7131Z" fill="#96A0B5"/>
</g>
<defs>
<clipPath id="clip0_747_8726">
<rect width="21" height="21" fill="white"/>
</clipPath>
</defs>
</svg>
