<svg width="14" height="14" viewBox="0 0 14 14" fill="none" xmlns="http://www.w3.org/2000/svg">
<path d="M9.12083 6.99977L12.9998 3.11677C13.2517 2.83053 13.3851 2.45913 13.3729 2.07807C13.3607 1.697 13.2039 1.33487 12.9343 1.06527C12.6647 0.795681 12.3026 0.638864 11.9215 0.626698C11.5405 0.614531 11.1691 0.747928 10.8828 0.999774L6.99983 4.87877L3.10983 0.987774C2.9705 0.848442 2.80509 0.737918 2.62304 0.662511C2.441 0.587105 2.24588 0.548294 2.04883 0.548294C1.85179 0.548294 1.65667 0.587105 1.47462 0.662511C1.29258 0.737918 1.12717 0.848442 0.987833 0.987774C0.8485 1.12711 0.737976 1.29252 0.66257 1.47457C0.587163 1.65661 0.548352 1.85173 0.548352 2.04877C0.548352 2.24582 0.587163 2.44094 0.66257 2.62298C0.737976 2.80503 0.8485 2.97044 0.987833 3.10977L4.87883 6.99977L0.999833 10.8818C0.847705 11.0178 0.724923 11.1834 0.638996 11.3684C0.55307 11.5535 0.505807 11.7542 0.500099 11.9581C0.494391 12.1621 0.530357 12.3651 0.605798 12.5547C0.681239 12.7443 0.794568 12.9165 0.938852 13.0608C1.08314 13.205 1.25534 13.3184 1.44493 13.3938C1.63452 13.4693 1.83751 13.5052 2.04147 13.4995C2.24544 13.4938 2.4461 13.4465 2.63118 13.3606C2.81625 13.2747 2.98184 13.1519 3.11783 12.9998L6.99983 9.12077L10.8778 12.9998C11.1592 13.2812 11.5409 13.4393 11.9388 13.4393C12.3368 13.4393 12.7184 13.2812 12.9998 12.9998C13.2812 12.7184 13.4393 12.3367 13.4393 11.9388C13.4393 11.5408 13.2812 11.1592 12.9998 10.8778L9.12083 6.99977Z" fill="#d5d5e5"/>
</svg>
