<svg width="12" height="12" viewBox="0 0 12 12" fill="none" xmlns="http://www.w3.org/2000/svg">
<path d="M10.5 6C10.4998 5.72413 10.4747 5.44884 10.425 5.1775L11.9465 4.3L10.4465 1.7L8.92447 2.5795C8.50424 2.21996 8.02134 1.94097 7.49997 1.7565V0H4.49997V1.7565C3.97859 1.94097 3.49569 2.21996 3.07547 2.5795L1.55347 1.7L0.0534668 4.3L1.57497 5.1775C1.47502 5.72128 1.47502 6.27872 1.57497 6.8225L0.0534668 7.7L1.55347 10.3L3.07547 9.421C3.49573 9.78036 3.97863 10.0592 4.49997 10.2435V12H7.49997V10.2435C8.02134 10.059 8.50424 9.78004 8.92447 9.4205L10.4465 10.3L11.9465 7.7L10.425 6.8225C10.4747 6.55116 10.4998 6.27587 10.5 6V6ZM7.49997 6C7.49997 6.29667 7.41199 6.58668 7.24717 6.83336C7.08235 7.08003 6.84808 7.27229 6.57399 7.38582C6.2999 7.49935 5.9983 7.52906 5.70733 7.47118C5.41636 7.4133 5.14909 7.27044 4.93931 7.06066C4.72953 6.85088 4.58667 6.58361 4.52879 6.29264C4.47091 6.00166 4.50062 5.70006 4.61415 5.42597C4.72768 5.15189 4.91994 4.91762 5.16661 4.7528C5.41328 4.58797 5.70329 4.5 5.99997 4.5C6.39779 4.5 6.77932 4.65804 7.06063 4.93934C7.34193 5.22064 7.49997 5.60218 7.49997 6Z" fill="#374957"/>
</svg>
