<svg width="17" height="17" viewBox="0 0 17 17" fill="none" xmlns="http://www.w3.org/2000/svg">
<g clip-path="url(#clip0_399_7614)">
<path d="M14.875 0.708496H2.125C1.56141 0.708496 1.02091 0.932379 0.622398 1.33089C0.223883 1.72941 0 2.26991 0 2.8335L0 16.2918H17V2.8335C17 2.26991 16.7761 1.72941 16.3776 1.33089C15.9791 0.932379 15.4386 0.708496 14.875 0.708496ZM2.125 2.12516H14.875C15.0629 2.12516 15.243 2.19979 15.3759 2.33263C15.5087 2.46547 15.5833 2.64563 15.5833 2.8335V3.30595L10.0031 8.88691C9.60389 9.28451 9.06342 9.50774 8.5 9.50774C7.93658 9.50774 7.39611 9.28451 6.99692 8.88691L1.41667 3.30595V2.8335C1.41667 2.64563 1.49129 2.46547 1.62413 2.33263C1.75697 2.19979 1.93714 2.12516 2.125 2.12516ZM1.41667 14.8752V5.31266L5.99533 9.8885C6.66019 10.5517 7.56093 10.9241 8.5 10.9241C9.43907 10.9241 10.3398 10.5517 11.0047 9.8885L15.5833 5.31266V14.8752H1.41667Z" fill="#96A0B5"/>
</g>
<defs>
<clipPath id="clip0_399_7614">
<rect width="17" height="17" fill="white"/>
</clipPath>
</defs>
</svg>
