<svg width="2017" height="334" viewBox="0 0 2017 334" fill="none" xmlns="http://www.w3.org/2000/svg">
<path d="M413 257.487L535.258 98.0467H415.747V6.87242H668.047V76.9712L546.247 235.953H679.494V327.128H413V257.487Z" fill="#4876EF"/>
<path d="M851.272 334C818.609 334 788.998 326.975 762.441 312.925C736.188 298.874 715.43 279.326 700.167 254.28C684.904 228.928 677.272 199.911 677.272 167.229C677.272 134.547 684.904 105.53 700.167 80.1783C715.43 54.8267 736.188 35.1257 762.441 21.0754C788.998 7.02515 818.609 0 851.272 0C883.63 0 912.935 7.02515 939.187 21.0754C965.745 35.1257 986.656 54.8267 1001.92 80.1783C1017.18 105.53 1024.81 134.547 1024.81 167.229C1024.81 199.911 1017.18 228.928 1001.92 254.28C986.656 279.326 965.745 298.874 939.187 312.925C912.935 326.975 883.63 334 851.272 334ZM851.272 231.83C869.588 231.83 884.698 226.027 896.603 214.42C908.508 202.813 914.461 187.083 914.461 167.229C914.461 147.375 908.508 131.645 896.603 120.038C884.698 108.432 869.588 102.628 851.272 102.628C832.651 102.628 817.388 108.432 805.482 120.038C793.577 131.645 787.625 147.375 787.625 167.229C787.625 187.083 793.577 202.813 805.482 214.42C817.693 226.027 832.956 231.83 851.272 231.83Z" fill="#4876EF"/>
<path d="M1210.34 334C1177.68 334 1148.07 326.975 1121.51 312.925C1095.26 298.874 1074.5 279.326 1059.24 254.28C1043.97 228.928 1036.34 199.911 1036.34 167.229C1036.34 134.547 1043.97 105.53 1059.24 80.1783C1074.5 54.8267 1095.26 35.1257 1121.51 21.0754C1148.07 7.02515 1177.68 0 1210.34 0C1242.7 0 1272.01 7.02515 1298.26 21.0754C1324.82 35.1257 1345.73 54.8267 1360.99 80.1783C1376.25 105.53 1383.88 134.547 1383.88 167.229C1383.88 199.911 1376.25 228.928 1360.99 254.28C1345.73 279.326 1324.82 298.874 1298.26 312.925C1272.01 326.975 1242.7 334 1210.34 334ZM1210.34 231.83C1228.66 231.83 1243.77 226.027 1255.67 214.42C1267.58 202.813 1273.53 187.083 1273.53 167.229C1273.53 147.375 1267.58 131.645 1255.67 120.038C1243.77 108.432 1228.66 102.628 1210.34 102.628C1191.72 102.628 1176.46 108.432 1164.55 120.038C1152.65 131.645 1146.7 147.375 1146.7 167.229C1146.7 187.083 1152.65 202.813 1164.55 214.42C1176.76 226.027 1192.03 231.83 1210.34 231.83Z" fill="#4876EF"/>
<path d="M1406.81 6.87242H1529.52C1564.93 6.87242 1595.92 13.2867 1622.47 26.1152C1649.34 38.9438 1670.1 57.2702 1684.75 81.0947C1699.4 104.919 1706.73 133.02 1706.73 165.396C1706.73 218.543 1690.85 258.861 1659.11 286.351C1627.66 313.535 1584.47 327.128 1529.52 327.128H1406.81V6.87242ZM1536.85 226.332C1576.53 226.332 1596.38 206.02 1596.38 165.396C1596.38 146.765 1591.19 132.562 1580.81 122.787C1570.43 112.708 1555.78 107.668 1536.85 107.668H1515.33V226.332H1536.85Z" fill="#4876EF"/>
<path d="M1788.05 204.798L1672.21 6.87242H1788.05L1842.54 108.126L1901.61 6.87242H2017L1896.57 204.798V327.128H1788.05V204.798Z" fill="#4876EF"/>
<path d="M151 90.5C151 75.172 146.572 60.1881 138.276 47.4433C129.98 34.6985 118.188 24.7651 104.393 18.8994C90.5968 13.0336 75.4163 11.4988 60.7707 14.4892C46.1251 17.4795 32.6723 24.8607 22.1135 35.6993C11.5546 46.5378 4.36393 60.347 1.45075 75.3805C-1.46244 90.4141 0.0327135 105.997 5.74713 120.158C11.4615 134.319 21.1386 146.423 33.5545 154.939C45.9704 163.455 60.5675 168 75.5 168L75.5 90.5L151 90.5Z" fill="#4876EF"/>
<path d="M166 90.5C166 75.172 170.428 60.1882 178.724 47.4433C187.02 34.6985 198.812 24.7652 212.607 18.8994C226.403 13.0336 241.584 11.4988 256.229 14.4892C270.875 17.4795 284.328 24.8607 294.887 35.6993C305.445 46.5378 312.636 60.347 315.549 75.3805C318.462 90.414 316.967 105.997 311.253 120.158C305.538 134.319 295.861 146.423 283.446 154.939C271.03 163.455 256.432 168 241.5 168L241.5 90.5L166 90.5Z" fill="#A574EE"/>
<path d="M241.5 179C256.432 179 271.03 183.545 283.446 192.061C295.861 200.577 305.538 212.681 311.253 226.842C316.967 241.003 318.462 256.586 315.549 271.619C312.636 286.653 305.445 300.462 294.887 311.301C284.328 322.139 270.875 329.52 256.229 332.511C241.584 335.501 226.403 333.966 212.607 328.101C198.812 322.235 187.02 312.301 178.724 299.557C170.428 286.812 166 271.828 166 256.5L241.5 256.5L241.5 179Z" fill="#96A0B5"/>
<path d="M75.5 179C60.5675 179 45.9704 183.545 33.5545 192.061C21.1386 200.577 11.4615 212.681 5.74713 226.842C0.0327105 241.003 -1.46244 256.586 1.45074 271.619C4.36393 286.653 11.5546 300.462 22.1135 311.301C32.6723 322.139 46.1251 329.52 60.7707 332.511C75.4163 335.501 90.5968 333.966 104.393 328.101C118.188 322.235 129.98 312.301 138.276 299.557C146.572 286.812 151 271.828 151 256.5L75.5 256.5L75.5 179Z" fill="#00CBA4"/>
</svg>
