<svg width="19" height="20" viewBox="0 0 19 20" fill="none" xmlns="http://www.w3.org/2000/svg">
<path d="M8.54448 3.09555C8.83466 2.15547 10.1653 2.15547 10.4555 3.09555L11.4153 6.20477C11.5446 6.62393 11.9321 6.90983 12.3708 6.90983H15.5814C16.5376 6.90983 16.9484 8.12324 16.1888 8.70416L13.5047 10.757C13.172 11.0114 13.0331 11.4461 13.1566 11.8462L14.1608 15.0996C14.448 16.03 13.3713 16.7804 12.5978 16.1888L10.1075 14.2843C9.74892 14.01 9.25108 14.01 8.89251 14.2843L6.40217 16.1888C5.62871 16.7804 4.55197 16.03 4.83916 15.0996L5.84337 11.8462C5.96689 11.4461 5.82799 11.0114 5.49535 10.757L2.81116 8.70416C2.05157 8.12324 2.46239 6.90983 3.41865 6.90983H6.62924C7.06791 6.90983 7.45537 6.62393 7.58475 6.20477L8.54448 3.09555Z" fill="#FFF500"/>
<g clip-path="url(#clip0_1684_8794)">
<path d="M16.897 7.49665C16.7692 7.08971 16.5138 6.73472 16.1685 6.48417C15.8233 6.23362 15.4067 6.10082 14.9801 6.1054H12.2495L11.4201 3.5204C11.2897 3.1135 11.0334 2.75853 10.6882 2.50669C10.3431 2.25485 9.9268 2.11914 9.49951 2.11914C9.07222 2.11914 8.65597 2.25485 8.31078 2.50669C7.96559 2.75853 7.70931 3.1135 7.57889 3.5204L6.74951 6.1054H4.01889C3.59372 6.106 3.17963 6.24095 2.83575 6.49096C2.49187 6.74098 2.23579 7.09327 2.10409 7.49752C1.97239 7.90176 1.9718 8.33729 2.10242 8.74189C2.23304 9.14649 2.48817 9.49947 2.83139 9.7504L5.05389 11.3754L4.20889 13.9923C4.07233 14.3981 4.0706 14.8373 4.20395 15.2442C4.33731 15.6511 4.5986 16.0041 4.94888 16.2504C5.29317 16.5046 5.71038 16.6408 6.13836 16.6387C6.56633 16.6366 6.98216 16.4962 7.32389 16.2385L9.49951 14.6373L11.6758 16.2366C12.0194 16.4894 12.4344 16.6267 12.861 16.6288C13.2876 16.6309 13.7039 16.4976 14.05 16.2482C14.3961 15.9988 14.6542 15.6461 14.7872 15.2407C14.9202 14.8353 14.9212 14.3983 14.7901 13.9923L13.9451 11.3754L16.1701 9.7504C16.5173 9.50262 16.7754 9.14965 16.9063 8.74374C17.0372 8.33783 17.034 7.90056 16.897 7.49665ZM15.4326 8.74102L12.8426 10.6341C12.7363 10.7118 12.6571 10.821 12.6165 10.9462C12.5758 11.0715 12.5758 11.2064 12.6164 11.3316L13.6008 14.3754C13.6506 14.5298 13.6501 14.696 13.5995 14.8501C13.5489 15.0042 13.4508 15.1383 13.3192 15.2331C13.1875 15.3279 13.0292 15.3786 12.867 15.3777C12.7048 15.3769 12.547 15.3247 12.4164 15.2285L9.86951 13.3535C9.76224 13.2747 9.63261 13.2322 9.49951 13.2322C9.36641 13.2322 9.23678 13.2747 9.12951 13.3535L6.58264 15.2285C6.45206 15.326 6.29385 15.3793 6.13093 15.3808C5.96801 15.3823 5.80885 15.3318 5.67653 15.2367C5.54421 15.1417 5.4456 15.0069 5.39501 14.8521C5.34441 14.6972 5.34446 14.5302 5.39514 14.3754L6.38264 11.3316C6.42321 11.2064 6.42318 11.0715 6.38255 10.9462C6.34192 10.821 6.26277 10.7118 6.15639 10.6341L3.56639 8.74102C3.43595 8.64552 3.33903 8.51124 3.28947 8.35736C3.23992 8.20349 3.24025 8.03788 3.29044 7.88421C3.34062 7.73054 3.43809 7.59665 3.56891 7.50168C3.69973 7.40671 3.85722 7.35551 4.01889 7.3554H7.20639C7.33871 7.35539 7.46761 7.31339 7.57454 7.23545C7.68147 7.1575 7.76089 7.04762 7.80139 6.92165L8.77014 3.90227C8.81986 3.74776 8.91733 3.61302 9.04851 3.51743C9.17969 3.42184 9.33782 3.37034 9.50014 3.37034C9.66245 3.37034 9.82058 3.42184 9.95176 3.51743C10.0829 3.61302 10.1804 3.74776 10.2301 3.90227L11.1989 6.92165C11.2394 7.04762 11.3188 7.1575 11.4257 7.23545C11.5327 7.31339 11.6616 7.35539 11.7939 7.3554H14.9814C15.143 7.35551 15.3005 7.40671 15.4314 7.50168C15.5622 7.59665 15.6596 7.73054 15.7098 7.88421C15.76 8.03788 15.7604 8.20349 15.7108 8.35736C15.6612 8.51124 15.5643 8.64552 15.4339 8.74102H15.4326Z" fill="#353636"/>
</g>
<defs>
<clipPath id="clip0_1684_8794">
<rect width="15" height="15" fill="white" transform="translate(2 2)"/>
</clipPath>
</defs>
</svg>
