<svg width="24" height="23" viewBox="0 0 24 23" fill="none" xmlns="http://www.w3.org/2000/svg">
<path d="M11.053 2.79327C11.3599 1.88806 12.6401 1.88806 12.947 2.79327L14.464 7.2674C14.6016 7.67325 14.9825 7.9463 15.411 7.9463H20.2264C21.2054 7.9463 21.6012 9.20757 20.7978 9.76697L16.9763 12.4277C16.6108 12.6822 16.4577 13.1477 16.6007 13.5695L18.0775 17.9251C18.3873 18.839 17.3509 19.6183 16.559 19.0669L12.5714 16.2905C12.228 16.0514 11.772 16.0514 11.4286 16.2905L7.44099 19.0669C6.64907 19.6183 5.61269 18.839 5.92254 17.9251L7.39931 13.5695C7.54231 13.1477 7.38915 12.6822 7.02367 12.4277L3.20221 9.76697C2.39878 9.20757 2.79462 7.9463 3.77362 7.9463H8.58897C9.01751 7.9463 9.39841 7.67325 9.53601 7.2674L11.053 2.79327Z" fill="#FFF500"/>
<g clip-path="url(#clip0_1706_8794)">
<path d="M21.863 8.3287C21.6925 7.78612 21.352 7.3128 20.8917 6.97873C20.4314 6.64466 19.8759 6.46759 19.3072 6.4737H15.6663L14.5605 3.02704C14.3866 2.4845 14.0449 2.01121 13.5846 1.67542C13.1244 1.33963 12.5694 1.15869 11.9997 1.15869C11.4299 1.15869 10.8749 1.33963 10.4147 1.67542C9.95445 2.01121 9.61274 2.4845 9.43884 3.02704L8.33301 6.4737H4.69217C4.12529 6.47451 3.57317 6.65444 3.11466 6.98779C2.65615 7.32114 2.31471 7.79086 2.13911 8.32986C1.96351 8.86886 1.96273 9.44956 2.13689 9.98903C2.31104 10.5285 2.65122 10.9991 3.10884 11.3337L6.07217 13.5004L4.94551 16.9895C4.76343 17.5307 4.76113 18.1162 4.93893 18.6588C5.11673 19.2014 5.46513 19.6719 5.93217 20.0004C6.39122 20.3394 6.9475 20.521 7.51813 20.5181C8.08877 20.5152 8.64321 20.3281 9.09884 19.9845L11.9997 17.8495L14.9013 19.982C15.3596 20.3191 15.9128 20.5021 16.4816 20.5049C17.0505 20.5077 17.6055 20.33 18.067 19.9975C18.5285 19.6649 18.8726 19.1946 19.0499 18.6541C19.2272 18.1136 19.2286 17.5308 19.0538 16.9895L17.9272 13.5004L20.8938 11.3337C21.3567 11.0033 21.7009 10.5327 21.8754 9.99149C22.05 9.45028 22.0456 8.86725 21.863 8.3287ZM19.9105 9.98787L16.4572 12.512C16.3153 12.6155 16.2098 12.7611 16.1556 12.9281C16.1014 13.0952 16.1014 13.275 16.1555 13.442L17.468 17.5004C17.5344 17.7062 17.5339 17.9278 17.4664 18.1333C17.3989 18.3388 17.268 18.5176 17.0925 18.644C16.917 18.7704 16.706 18.8379 16.4897 18.8368C16.2734 18.8357 16.063 18.7661 15.8888 18.6379L12.493 16.1379C12.35 16.0328 12.1771 15.9762 11.9997 15.9762C11.8222 15.9762 11.6494 16.0328 11.5063 16.1379L8.11051 18.6379C7.93641 18.7678 7.72545 18.8389 7.50823 18.8409C7.291 18.8428 7.07879 18.7756 6.90236 18.6488C6.72594 18.5221 6.59446 18.3424 6.527 18.1359C6.45954 17.9294 6.4596 17.7068 6.52717 17.5004L7.84384 13.442C7.89794 13.275 7.8979 13.0952 7.84372 12.9281C7.78955 12.7611 7.68401 12.6155 7.54217 12.512L4.08884 9.98787C3.91493 9.86053 3.7857 9.68149 3.71962 9.47632C3.65355 9.27115 3.654 9.05035 3.72091 8.84545C3.78782 8.64055 3.91778 8.46204 4.09221 8.33541C4.26664 8.20879 4.47662 8.14052 4.69217 8.14037H8.94217C9.1186 8.14036 9.29048 8.08436 9.43305 7.98043C9.57561 7.8765 9.68152 7.73 9.73551 7.56204L11.0272 3.5362C11.0935 3.33019 11.2234 3.15053 11.3983 3.02308C11.5732 2.89562 11.7841 2.82696 12.0005 2.82696C12.2169 2.82696 12.4278 2.89562 12.6027 3.02308C12.7776 3.15053 12.9075 3.33019 12.9738 3.5362L14.2655 7.56204C14.3195 7.73 14.4254 7.8765 14.568 7.98043C14.7105 8.08436 14.8824 8.14036 15.0588 8.14037H19.3088C19.5244 8.14052 19.7344 8.20879 19.9088 8.33541C20.0832 8.46204 20.2132 8.64055 20.2801 8.84545C20.347 9.05035 20.3475 9.27115 20.2814 9.47632C20.2153 9.68149 20.0861 9.86053 19.9122 9.98787H19.9105Z" fill="#353636"/>
</g>
<defs>
<clipPath id="clip0_1706_8794">
<rect width="20" height="20" fill="white" transform="translate(2 1)"/>
</clipPath>
</defs>
</svg>
