<svg width="21" height="24" viewBox="0 0 21 24" fill="none" xmlns="http://www.w3.org/2000/svg">
<circle cx="16" cy="5" r="5" fill="#B83E3E"/>
<path d="M9 3.00201C8.97721 3.00215 9.0224 2.99868 9 3.00056C7.26675 3.09377 5.49218 3.77144 4.15018 4.87703C2.7528 6.02824 1.7932 7.6097 1.40018 9.37703L0.108518 15.127C-0.0330021 15.7637 -0.0393088 16.4085 0.108518 17.0437C0.256345 17.679 0.575425 18.2849 0.983518 18.7937C1.3916 19.3024 1.89552 19.72 2.48352 20.002C3.07152 20.2842 3.70633 20.4188 4.35852 20.4188H5.35852C5.55842 21.4032 6.0807 22.2829 6.85852 22.9188C7.63633 23.5545 8.60397 23.9186 9.60852 23.9188C10.6131 23.9188 11.5808 23.5545 12.3585 22.9188C13.1364 22.2829 13.6587 21.4032 13.8585 20.4188H14.6085C15.2799 20.4188 15.9237 20.2586 16.5252 19.9604C17.1267 19.6621 17.6605 19.2448 18.0669 18.7104C18.4732 18.176 18.7739 17.5364 18.9003 16.877C19.0267 16.2177 18.9965 15.5657 18.8168 14.9188L17.7752 11.1687C17.6445 10.7082 17.1524 10.4547 16.6919 10.5854C16.2313 10.716 15.9779 11.1665 16.1085 11.627L17.1085 15.377C17.2179 15.7649 17.2679 16.1896 17.1919 16.5854C17.116 16.9813 16.9369 17.3488 16.6919 17.6686C16.4491 17.9908 16.1364 18.2394 15.7752 18.4188C15.414 18.5978 15.0117 18.6702 14.6085 18.6686H4.35852C3.96725 18.6686 3.58625 18.5881 3.23352 18.4188C2.88077 18.2494 2.56165 18.0156 2.31685 17.7104C2.07206 17.405 1.90552 17.0498 1.81685 16.6686C1.72818 16.2877 1.73194 15.884 1.81685 15.502L3.10852 9.75203C3.41716 8.36383 4.17761 7.1146 5.27518 6.21036C6.37278 5.30614 7.72863 4.78927 9.15012 4.75203H9.19185L9 4.75056C9.47867 4.74771 9.87787 4.3542 9.87493 3.87556C9.87213 3.39692 9.47867 2.99771 9 3.00056L9.10852 3.00203L9 3.00201ZM7.15018 20.4188H12.0669C11.8873 20.9264 11.5476 21.3569 11.1085 21.6686C10.6696 21.9806 10.1471 22.1664 9.60852 22.1686C9.06999 22.1664 8.54756 21.9806 8.10852 21.6686C7.66948 21.3569 7.32969 20.9264 7.15018 20.4188Z" fill="#96A0B5"/>
</svg>
