<svg width="17" height="17" viewBox="0 0 17 17" fill="none" xmlns="http://www.w3.org/2000/svg">
<g clip-path="url(#clip0_399_7615)">
<path d="M16.475 11.475L14.6333 4.83717C14.2401 3.41726 13.3832 2.16968 12.199 1.29301C11.0148 0.416341 9.57145 -0.039053 8.09859 -0.000689914C6.62572 0.0376732 5.20801 0.567588 4.07108 1.50472C2.93416 2.44185 2.14336 3.73233 1.82455 5.17079L0.400087 11.5812C0.331161 11.8918 0.332843 12.2139 0.405007 12.5237C0.477171 12.8335 0.617977 13.1232 0.817037 13.3713C1.0161 13.6195 1.26833 13.8197 1.55513 13.9574C1.84192 14.095 2.15597 14.1665 2.47409 14.1666H5.02905C5.19162 14.9672 5.62598 15.687 6.25853 16.2041C6.89108 16.7211 7.68292 17.0035 8.49988 17.0035C9.31684 17.0035 10.1087 16.7211 10.7412 16.2041C11.3738 15.687 11.8081 14.9672 11.9707 14.1666H14.4286C14.756 14.1665 15.0788 14.0907 15.372 13.9452C15.6653 13.7998 15.9209 13.5885 16.1191 13.328C16.3172 13.0675 16.4525 12.7647 16.5144 12.4432C16.5762 12.1218 16.563 11.7904 16.4757 11.475H16.475ZM8.49988 15.5833C8.06194 15.5815 7.63527 15.4444 7.27822 15.1908C6.92117 14.9372 6.65119 14.5795 6.50521 14.1666H10.4945C10.3486 14.5795 10.0786 14.9372 9.72154 15.1908C9.36449 15.4444 8.93781 15.5815 8.49988 15.5833ZM14.9918 12.4702C14.9257 12.5578 14.84 12.6287 14.7416 12.6773C14.6432 12.7259 14.5348 12.7508 14.4251 12.75H2.47409C2.36802 12.7499 2.26332 12.7261 2.1677 12.6802C2.07208 12.6343 1.98798 12.5675 1.92163 12.4848C1.85527 12.402 1.80834 12.3055 1.7843 12.2021C1.76027 12.0988 1.75974 11.9915 1.78275 11.8879L3.20721 5.4775C3.45821 4.34856 4.07939 3.33593 4.97199 2.60057C5.8646 1.86521 6.9774 1.44933 8.13351 1.41904C9.28962 1.38876 10.4227 1.7458 11.3526 2.43342C12.2824 3.12103 12.9558 4.09975 13.2655 5.214L15.1072 11.8518C15.1373 11.9568 15.1425 12.0673 15.1225 12.1746C15.1024 12.2819 15.0577 12.3831 14.9918 12.4702Z" fill="#96A0B5"/>
</g>
<defs>
<clipPath id="clip0_399_7615">
<rect width="17" height="17" fill="white"/>
</clipPath>
</defs>
</svg>
