<svg width="70" height="70" viewBox="0 0 70 70" fill="none" xmlns="http://www.w3.org/2000/svg">
<circle cx="35" cy="35" r="34" fill="white" stroke="#C20808" stroke-width="2"/>
<path d="M25.647 27.026H27.585V27.502C27.585 30.307 25.256 32.602 21.21 33.163L20.377 31.395C23.913 30.97 25.647 29.151 25.647 27.502V27.026ZM26.021 27.026H27.959V27.502C27.959 29.151 29.693 30.97 33.212 31.395L32.396 33.163C28.35 32.602 26.021 30.29 26.021 27.502V27.026ZM19.68 33.996H33.909V35.781H19.68V33.996ZM26.769 36.818C30.169 36.818 32.226 37.855 32.226 39.674C32.226 41.51 30.169 42.53 26.769 42.53C23.352 42.53 21.295 41.51 21.295 39.674C21.295 37.855 23.352 36.818 26.769 36.818ZM26.769 38.518C24.661 38.518 23.59 38.892 23.59 39.674C23.59 40.473 24.661 40.83 26.769 40.83C28.877 40.83 29.948 40.473 29.948 39.674C29.948 38.892 28.877 38.518 26.769 38.518ZM46.1307 26.788H48.4087V38.093H46.1307V26.788ZM37.9197 40.439H48.7997V42.241H37.9197V40.439ZM37.9197 36.954H40.1807V41.17H37.9197V36.954ZM39.8407 27.774C42.2547 27.774 44.1077 29.44 44.1077 31.769C44.1077 34.081 42.2547 35.764 39.8407 35.764C37.4267 35.764 35.5567 34.081 35.5567 31.769C35.5567 29.44 37.4267 27.774 39.8407 27.774ZM39.8407 29.729C38.6677 29.729 37.7667 30.477 37.7667 31.769C37.7667 33.044 38.6677 33.792 39.8407 33.792C40.9967 33.792 41.8977 33.044 41.8977 31.769C41.8977 30.477 40.9967 29.729 39.8407 29.729Z" fill="#C20808"/>
</svg>
