<svg width="15" height="15" viewBox="0 0 15 15" fill="none" xmlns="http://www.w3.org/2000/svg">
<g clip-path="url(#clip0_455_8877)">
<path d="M14.3439 5.99975C14.2267 5.88258 14.0677 5.81676 13.902 5.81676C13.7363 5.81676 13.5773 5.88258 13.4601 5.99975L6.65261 12.8366C6.36243 13.1268 6.01792 13.3571 5.63877 13.5142C5.25961 13.6712 4.85323 13.7521 4.44283 13.7521C3.61397 13.7522 2.81905 13.423 2.23292 12.8369C1.64679 12.2509 1.31747 11.456 1.31741 10.6272C1.31736 9.79831 1.64656 9.00338 2.23261 8.41725L8.82573 1.79725C9.17829 1.45031 9.65365 1.25673 10.1483 1.25869C10.6429 1.26064 11.1167 1.45797 11.4665 1.80769C11.8163 2.15741 12.0138 2.63119 12.0159 3.12582C12.0179 3.62045 11.8245 4.09586 11.4776 4.4485L4.88448 11.0685C4.76557 11.1824 4.60727 11.246 4.44261 11.246C4.27794 11.246 4.11964 11.1824 4.00073 11.0685C3.88356 10.9513 3.81774 10.7924 3.81774 10.6266C3.81774 10.4609 3.88356 10.302 4.00073 10.1847L9.87073 4.28787C9.98458 4.17 10.0476 4.01212 10.0462 3.84825C10.0447 3.68438 9.979 3.52762 9.86312 3.41174C9.74724 3.29586 9.59048 3.23013 9.42661 3.2287C9.26273 3.22728 9.10486 3.29028 8.98698 3.40412L3.11698 9.301C2.94284 9.47511 2.8047 9.68183 2.71045 9.90933C2.6162 10.1368 2.56769 10.3807 2.56769 10.6269C2.56769 10.8732 2.6162 11.117 2.71045 11.3445C2.8047 11.572 2.94284 11.7788 3.11698 11.9529C3.47424 12.2938 3.94909 12.484 4.44292 12.484C4.93674 12.484 5.41159 12.2938 5.76886 11.9529L12.3614 5.33225C12.9351 4.74369 13.2539 3.95278 13.2486 3.13086C13.2433 2.30893 12.9145 1.52217 12.3332 0.941014C11.752 0.359854 10.9652 0.0310903 10.1432 0.0259403C9.32132 0.0207904 8.53046 0.339669 7.94198 0.9135L1.34886 7.5335C0.528342 8.35401 0.0673828 9.46687 0.0673828 10.6272C0.0673828 11.7876 0.528342 12.9005 1.34886 13.721C2.16937 14.5415 3.28222 15.0025 4.44261 15.0025C5.60299 15.0025 6.71584 14.5415 7.53636 13.721L14.3439 6.886C14.4022 6.82792 14.4486 6.75887 14.4802 6.68283C14.5118 6.60678 14.5281 6.52523 14.5281 6.44287C14.5281 6.36052 14.5118 6.27897 14.4802 6.20292C14.4486 6.12688 14.4022 6.05783 14.3439 5.99975Z" fill="#353636"/>
</g>
<defs>
<clipPath id="clip0_455_8877">
<rect width="15" height="15" fill="white"/>
</clipPath>
</defs>
</svg>
