<svg width="70" height="70" viewBox="0 0 70 70" fill="none" xmlns="http://www.w3.org/2000/svg">
<circle cx="35" cy="35" r="34" fill="white" stroke="#C20808" stroke-width="2"/>
<path d="M29.812 26.788H32.073V38.365H29.812V26.788ZM31.427 31.208H34.164V33.061H31.427V31.208ZM21.924 40.439H32.634V42.241H21.924V40.439ZM21.924 37.192H24.185V40.83H21.924V37.192ZM20.139 27.893H22.383V30.154H25.46V27.893H27.704V35.883H20.139V27.893ZM22.383 31.871V34.115H25.46V31.871H22.383ZM46.2327 26.754H48.4937V42.547H46.2327V26.754ZM43.6487 30.103H46.6067V31.922H43.6487V30.103ZM35.8627 37.192H37.1037C39.4327 37.192 41.3707 37.141 43.6317 36.801L43.8187 38.637C41.5067 38.994 39.5007 39.045 37.1037 39.045H35.8627V37.192ZM35.8287 28.08H42.8667V34.183H38.1067V37.6H35.8627V32.398H40.6397V29.882H35.8287V28.08ZM43.6147 34.387H46.5727V36.206H43.6147V34.387Z" fill="#C20808"/>
</svg>
