<svg width="17" height="17" viewBox="0 0 17 17" fill="none" xmlns="http://www.w3.org/2000/svg">
<path d="M4.54032 6.375H12.4595C12.5996 6.37559 12.7364 6.4177 12.8525 6.49602C12.9687 6.57433 13.059 6.68533 13.1121 6.81498C13.1651 6.94463 13.1786 7.0871 13.1507 7.22438C13.1228 7.36167 13.0548 7.4876 12.9553 7.58625L9.00283 11.5387C8.93698 11.6051 8.85863 11.6578 8.77232 11.6938C8.686 11.7298 8.59342 11.7483 8.49991 11.7483C8.4064 11.7483 8.31382 11.7298 8.2275 11.6938C8.14118 11.6578 8.06284 11.6051 7.99699 11.5387L4.04449 7.58625C3.94503 7.4876 3.87705 7.36167 3.84915 7.22438C3.82125 7.0871 3.83469 6.94463 3.88776 6.81498C3.94083 6.68533 4.03116 6.57433 4.14731 6.49602C4.26347 6.4177 4.40024 6.37559 4.54032 6.375Z" fill="#353636"/>
</svg>
