<svg width="420" height="504" viewBox="0 0 420 504" fill="none" xmlns="http://www.w3.org/2000/svg">
<path d="M41 395V34H271.511L384 150.592V395H41Z" fill="white"/>
<path fill-rule="evenodd" clip-rule="evenodd" d="M303.765 43.0504L376.928 116.256C390.625 129.869 401.485 146.065 408.878 163.905C416.272 181.745 420.052 200.874 419.999 220.185V399C419.966 426.838 408.893 453.525 389.209 473.209C369.525 492.894 342.837 503.967 315 504H105C77.1624 503.967 50.4747 492.894 30.7906 473.209C11.1065 453.525 0.033345 426.838 0 399V105C0.033345 77.1629 11.1065 50.4752 30.7906 30.7911C50.4747 11.107 77.1624 0.033829 105 0.000484022H199.815C219.127 -0.0492214 238.257 3.72982 256.099 11.1191C273.942 18.5084 290.142 29.3614 303.765 43.0504ZM363.636 168C359.162 159.961 353.647 152.547 347.235 145.95L274.071 72.7444C267.462 66.3428 260.041 60.8358 252 56.3644V147C252 152.57 254.212 157.911 258.15 161.85C262.089 165.788 267.43 168 273 168H363.636ZM41.9999 374V105C41.9999 88.2918 48.6374 72.2675 60.4522 60.4527C72.267 48.6379 88.2913 42.0004 105 42.0004H199.815C202.062 42.0004 204.264 42.2865 206.469 42.5729C207.643 42.7254 208.817 42.878 210 42.9874V147C210 163.709 216.637 179.733 228.452 191.548C240.267 203.363 256.291 210 273 210H377.013C377.122 211.182 377.274 212.354 377.427 213.525C377.713 215.725 378 217.924 378 220.185V374H41.9999Z" fill="#374957"/>
</svg>
