<svg width="160" height="151" viewBox="0 0 160 151" fill="none" xmlns="http://www.w3.org/2000/svg">
<path d="M123.334 13.6896H83.2802C82.7417 13.6871 82.2117 13.5533 81.7336 13.2995L62.1001 2.73786C58.757 0.941071 55.0401 0.00160428 51.2667 0H36.6666C16.4253 0.0224599 0.0221875 16.8645 0 37.647V112.941C0.0221875 133.724 16.4253 150.566 36.6666 150.588H123.333C143.575 150.565 159.978 133.724 160 112.941V51.3369C159.978 30.5541 143.575 13.7124 123.334 13.6896ZM140 112.941C140 122.392 132.538 130.053 123.334 130.053H36.6666C27.4619 130.053 20 122.392 20 112.941V47.6885H139.6C139.862 48.8859 139.997 50.1093 140 51.3369V112.941Z" fill="#69757e"/>
</svg>
