<svg width="17" height="17" viewBox="0 0 17 17" fill="none" xmlns="http://www.w3.org/2000/svg">
<path d="M11.6875 9.91732C11.6875 10.1991 11.5756 10.4694 11.3763 10.6686C11.177 10.8679 10.9068 10.9798 10.625 10.9798H9.5625V12.0423C9.5625 12.3241 9.45056 12.5944 9.2513 12.7936C9.05204 12.9929 8.78179 13.1048 8.5 13.1048C8.21821 13.1048 7.94796 12.9929 7.7487 12.7936C7.54944 12.5944 7.4375 12.3241 7.4375 12.0423V10.9798H6.375C6.09321 10.9798 5.82296 10.8679 5.6237 10.6686C5.42444 10.4694 5.3125 10.1991 5.3125 9.91732C5.3125 9.63553 5.42444 9.36527 5.6237 9.16602C5.82296 8.96676 6.09321 8.85482 6.375 8.85482H7.4375V7.79232C7.4375 7.51053 7.54944 7.24027 7.7487 7.04102C7.94796 6.84176 8.21821 6.72982 8.5 6.72982C8.78179 6.72982 9.05204 6.84176 9.2513 7.04102C9.45056 7.24027 9.5625 7.51053 9.5625 7.79232V8.85482H10.625C10.9068 8.85482 11.177 8.96676 11.3763 9.16602C11.5756 9.36527 11.6875 9.63553 11.6875 9.91732V9.91732ZM17 6.02149V12.3965C16.9989 13.4294 16.5881 14.4196 15.8577 15.15C15.1273 15.8804 14.1371 16.2912 13.1042 16.2923H3.89583C2.86294 16.2912 1.87267 15.8804 1.14231 15.15C0.411939 14.4196 0.00112495 13.4294 0 12.3965L0 4.60482C0.00112495 3.57192 0.411939 2.58166 1.14231 1.85129C1.87267 1.12092 2.86294 0.71011 3.89583 0.708985H5.66667C5.83164 0.708886 5.99436 0.747203 6.14196 0.820901L8.75075 2.12565H13.1042C14.1371 2.12678 15.1273 2.53759 15.8577 3.26796C16.5881 3.99832 16.9989 4.98859 17 6.02149ZM14.875 6.02149C14.8749 5.90252 14.8628 5.78386 14.8389 5.66732H2.125V12.3965C2.125 12.8661 2.31157 13.3166 2.64367 13.6487C2.97576 13.9807 3.42618 14.1673 3.89583 14.1673H13.1042C13.5738 14.1673 14.0242 13.9807 14.3563 13.6487C14.6884 13.3166 14.875 12.8661 14.875 12.3965V6.02149Z" fill="#E1E7ED"/>
</svg>
