<svg width="50" height="100" viewBox="0 0 50 100" fill="none" xmlns="http://www.w3.org/2000/svg">
<path d="M0 93.7609C0.00146042 92.102 0.661647 90.5115 1.83542 89.3392L33.8384 57.3362C34.8071 56.3678 35.5755 55.218 36.0997 53.9526C36.624 52.6872 36.8938 51.3309 36.8938 49.9612C36.8938 48.5914 36.624 47.2351 36.0997 45.9697C35.5755 44.7043 34.8071 43.5545 33.8384 42.5861L1.87713 10.604C0.737348 9.42388 0.106668 7.84332 0.120924 6.20273C0.13518 4.56214 0.793234 2.99278 1.95335 1.83266C3.11347 0.672546 4.68283 0.0144928 6.32342 0.000236535C7.96401 -0.0140198 9.54457 0.616661 10.7247 1.75644L42.686 33.7136C46.9835 38.0195 49.3971 43.8546 49.3971 49.9382C49.3971 56.0218 46.9835 61.8569 42.686 66.1629L10.683 98.1659C9.80914 99.0403 8.69588 99.6363 7.48369 99.8786C6.2715 100.121 5.01468 99.9988 3.87185 99.5275C2.72901 99.0563 1.75137 98.2571 1.06228 97.2308C0.373198 96.2045 0.00355527 94.9971 0 93.7609V93.7609Z" fill="#898b8d"/>
</svg>
