<svg width="24" height="23" viewBox="0 0 24 23" fill="none" xmlns="http://www.w3.org/2000/svg">
<g clip-path="url(#clip0_744_8724)">
<path d="M19 0.958008H5C3.6744 0.95953 2.40356 1.46485 1.46622 2.36314C0.528882 3.26142 0.00158786 4.47931 0 5.74967L0 17.2497C0.00158786 18.52 0.528882 19.7379 1.46622 20.6362C2.40356 21.5345 3.6744 22.0398 5 22.0413H19C20.3256 22.0398 21.5964 21.5345 22.5338 20.6362C23.4711 19.7379 23.9984 18.52 24 17.2497V5.74967C23.9984 4.47931 23.4711 3.26142 22.5338 2.36314C21.5964 1.46485 20.3256 0.95953 19 0.958008V0.958008ZM5 2.87467H19C19.5988 2.8758 20.1835 3.04863 20.679 3.3709C21.1744 3.69318 21.5579 4.15017 21.78 4.68305L14.122 12.0229C13.5584 12.5609 12.7954 12.8629 12 12.8629C11.2046 12.8629 10.4416 12.5609 9.878 12.0229L2.22 4.68305C2.44215 4.15017 2.82561 3.69318 3.32105 3.3709C3.81648 3.04863 4.40121 2.8758 5 2.87467V2.87467ZM19 20.1247H5C4.20435 20.1247 3.44129 19.8218 2.87868 19.2826C2.31607 18.7434 2 18.0122 2 17.2497V7.18717L8.464 13.378C9.40263 14.2753 10.6743 14.7791 12 14.7791C13.3257 14.7791 14.5974 14.2753 15.536 13.378L22 7.18717V17.2497C22 18.0122 21.6839 18.7434 21.1213 19.2826C20.5587 19.8218 19.7956 20.1247 19 20.1247Z" fill="#96A0B5"/>
</g>
<defs>
<clipPath id="clip0_744_8724">
<rect width="24" height="23" fill="white"/>
</clipPath>
</defs>
</svg>
