<svg width="25" height="24" viewBox="0 0 25 24" fill="none" xmlns="http://www.w3.org/2000/svg">
<path fill-rule="evenodd" clip-rule="evenodd" d="M24 19V12C24 11.7348 23.8946 11.4804 23.7071 11.2929C23.5196 11.1054 23.2652 11 23 11C22.7348 11 22.4804 11.1054 22.2929 11.2929C22.1054 11.4804 22 11.7348 22 12V19C22 19.7956 21.6839 20.5587 21.1213 21.1213C20.5587 21.6839 19.7956 22 19 22H5C4.20435 22 3.44129 21.6839 2.87868 21.1213C2.31607 20.5587 2 19.7956 2 19V9.071L8.463 15.532C9.39964 16.4686 10.6697 16.9953 11.9943 16.9964C13.3189 16.9976 14.5898 16.473 15.528 15.538L17.392 13.71C17.577 13.5234 17.6811 13.2715 17.6818 13.0088C17.6825 12.746 17.5798 12.4935 17.3959 12.3059C17.2119 12.1183 16.9615 12.0106 16.6988 12.0061C16.4361 12.0017 16.1822 12.1008 15.992 12.282L14.122 14.118C13.5583 14.6791 12.7953 14.9941 12 14.9941C11.2047 14.9941 10.4417 14.6791 9.878 14.118L2.361 6.6C2.6138 6.11854 2.99311 5.71514 3.45812 5.43321C3.92312 5.15128 4.45621 5.0015 5 5H11C11.2652 5 11.5196 4.89464 11.7071 4.70711C11.8946 4.51957 12 4.26522 12 4C12 3.73478 11.8946 3.48043 11.7071 3.29289C11.5196 3.10536 11.2652 3 11 3H5C3.6744 3.00159 2.40356 3.52888 1.46622 4.46622C0.528882 5.40356 0.00158786 6.6744 0 8V19C0.00158786 20.3256 0.528882 21.5964 1.46622 22.5338C2.40356 23.4711 3.6744 23.9984 5 24H19C20.3256 23.9984 21.5964 23.4711 22.5338 22.5338C23.4711 21.5964 23.9984 20.3256 24 19Z" fill="#96A0B5"/>
<circle cx="20" cy="5" r="5" fill="#B83E3E"/>
</svg>
