<svg width="25" height="25" viewBox="0 0 25 25" fill="none" xmlns="http://www.w3.org/2000/svg">
<path d="M17.7043 0C17.4281 0 17.1632 0.109747 16.9679 0.305097C16.7726 0.500447 16.6629 0.765399 16.6629 1.04167C16.6629 4.11354 13.9729 5.20833 11.4557 5.20833H4.16573C3.06091 5.20833 2.00134 5.64732 1.22011 6.42872C0.438888 7.21012 0 8.26993 0 9.375L0 11.4583C0.00227466 12.082 0.14524 12.6971 0.418242 13.2579C0.691243 13.8186 1.08724 14.3105 1.57673 14.6969L5.29672 23.001C5.56128 23.5959 5.99258 24.1013 6.53839 24.4561C7.0842 24.8109 7.72113 24.9998 8.37207 25C8.88998 24.9997 9.39959 24.8698 9.85451 24.6222C10.3094 24.3745 10.6952 24.0171 10.9767 23.5823C11.2583 23.1474 11.4266 22.6491 11.4664 22.1326C11.5063 21.6161 11.4163 21.0978 11.2048 20.625L8.91361 15.625H11.4557C13.9729 15.625 16.6629 16.7198 16.6629 19.7917C16.6629 20.0679 16.7726 20.3329 16.9679 20.5282C17.1632 20.7236 17.4281 20.8333 17.7043 20.8333C17.9805 20.8333 18.2454 20.7236 18.4407 20.5282C18.636 20.3329 18.7458 20.0679 18.7458 19.7917V1.04167C18.7458 0.765399 18.636 0.500447 18.4407 0.305097C18.2454 0.109747 17.9805 0 17.7043 0V0ZM9.30728 21.4781C9.37626 21.6339 9.40527 21.8045 9.39168 21.9744C9.37809 22.1443 9.32233 22.308 9.22945 22.4509C9.13657 22.5938 9.00952 22.7112 8.8598 22.7925C8.71008 22.8739 8.54244 22.9165 8.37207 22.9167C8.12358 22.9165 7.88048 22.8441 7.67232 22.7084C7.46415 22.5727 7.29986 22.3794 7.19942 22.1521L4.27508 15.625H6.62246L9.30728 21.4781ZM16.6629 15.2083C15.175 14.0617 13.3328 13.472 11.4557 13.5417H4.16573C3.61332 13.5417 3.08353 13.3222 2.69292 12.9315C2.30231 12.5408 2.08286 12.0109 2.08286 11.4583V9.375C2.08286 8.82247 2.30231 8.29256 2.69292 7.90186C3.08353 7.51116 3.61332 7.29167 4.16573 7.29167H11.4557C13.3322 7.36281 15.1743 6.77503 16.6629 5.63021V15.2083ZM24.8902 16.0958C24.8291 16.2183 24.7445 16.3275 24.6412 16.4173C24.5379 16.507 24.4179 16.5755 24.2881 16.6189C24.1583 16.6622 24.0212 16.6795 23.8848 16.6699C23.7483 16.6602 23.615 16.6237 23.4926 16.5625L21.4098 15.5208C21.1625 15.3973 20.9745 15.1807 20.887 14.9185C20.7995 14.6564 20.8197 14.3702 20.9432 14.1229C21.0667 13.8757 21.2833 13.6876 21.5454 13.6001C21.8075 13.5125 22.0936 13.5328 22.3408 13.6562L24.4237 14.6979C24.6696 14.8213 24.8567 15.0371 24.9441 15.298C25.0315 15.559 25.0122 15.8439 24.8902 16.0906V16.0958ZM20.9432 6.72083C20.882 6.59841 20.8455 6.46513 20.8359 6.32861C20.8262 6.19208 20.8435 6.05499 20.8868 5.92517C20.9302 5.79534 20.9987 5.67533 21.0884 5.572C21.1781 5.46866 21.2873 5.38402 21.4098 5.32292L23.4926 4.28125C23.7398 4.15776 24.0259 4.13755 24.288 4.22507C24.5501 4.31258 24.7668 4.50066 24.8902 4.74792C25.0137 4.99518 25.0339 5.28136 24.9464 5.54352C24.8589 5.80569 24.6709 6.02234 24.4237 6.14583L22.3408 7.1875C22.2184 7.2487 22.0851 7.28518 21.9487 7.29485C21.8122 7.30452 21.6751 7.28719 21.5453 7.24386C21.4155 7.20052 21.2955 7.13202 21.1922 7.04227C21.0889 6.95253 21.0043 6.8433 20.9432 6.72083V6.72083ZM20.8286 10.4167C20.8286 10.1404 20.9384 9.87545 21.1337 9.6801C21.329 9.48475 21.5939 9.375 21.8701 9.375H23.9529C24.2291 9.375 24.494 9.48475 24.6893 9.6801C24.8846 9.87545 24.9944 10.1404 24.9944 10.4167C24.9944 10.6929 24.8846 10.9579 24.6893 11.1532C24.494 11.3486 24.2291 11.4583 23.9529 11.4583H21.8701C21.5939 11.4583 21.329 11.3486 21.1337 11.1532C20.9384 10.9579 20.8286 10.6929 20.8286 10.4167Z" fill="#F35D5D"/>
</svg>
