<svg width="15" height="15" viewBox="0 0 15 15" fill="none" xmlns="http://www.w3.org/2000/svg">
<g clip-path="url(#clip0_455_8481)">
<path d="M14.0369 5.06269L9.70938 0.915194C9.1229 0.33488 8.33166 0.00859723 7.50661 0.00684305C6.68156 0.00508886 5.88894 0.328004 5.3 0.905819L0.9625 5.06269C0.659134 5.35488 0.417601 5.70507 0.252256 6.09245C0.0869097 6.47983 0.00112514 6.8965 0 7.31769L0 11.8752C0.000992411 12.7037 0.330551 13.498 0.916387 14.0838C1.50222 14.6696 2.2965 14.9992 3.125 15.0002H11.875C12.7035 14.9992 13.4978 14.6696 14.0836 14.0838C14.6694 13.498 14.999 12.7037 15 11.8752V7.31769C14.9989 6.89644 14.9131 6.47971 14.7476 6.09232C14.5821 5.70492 14.3404 5.35476 14.0369 5.06269ZM6.17437 1.79894C6.52878 1.44769 7.0081 1.25145 7.50707 1.25333C8.00604 1.2552 8.48387 1.45504 8.83562 1.80894L13.0525 5.84894L8.82563 10.0764C8.46832 10.417 7.99363 10.607 7.5 10.607C7.00637 10.607 6.53168 10.417 6.17437 10.0764L1.94687 5.84894L6.17437 1.79894ZM13.75 11.8752C13.75 12.3725 13.5525 12.8494 13.2008 13.201C12.8492 13.5527 12.3723 13.7502 11.875 13.7502H3.125C2.62772 13.7502 2.15081 13.5527 1.79917 13.201C1.44754 12.8494 1.25 12.3725 1.25 11.8752V7.31769C1.25063 7.19637 1.26298 7.07539 1.28688 6.95644L5.29063 10.9602C5.87858 11.5424 6.67257 11.869 7.5 11.869C8.32743 11.869 9.12142 11.5424 9.70938 10.9602L13.7131 6.95644C13.737 7.07539 13.7494 7.19637 13.75 7.31769V11.8752Z" fill="#353636"/>
</g>
<defs>
<clipPath id="clip0_455_8481">
<rect width="15" height="15" fill="white"/>
</clipPath>
</defs>
</svg>
