<svg width="17" height="17" viewBox="0 0 17 17" fill="none" xmlns="http://www.w3.org/2000/svg">
<g clip-path="url(#clip0_455_9464)">
<path d="M12.1616 16.9999C12.0683 17.0005 11.9759 16.9826 11.8896 16.9474C11.8033 16.9121 11.7248 16.8602 11.6586 16.7945L5.87155 11.0075C5.54173 10.6785 5.28005 10.2876 5.10151 9.85736C4.92296 9.42708 4.83105 8.96581 4.83105 8.49996C4.83105 8.03411 4.92296 7.57283 5.10151 7.14255C5.28005 6.71228 5.54173 6.32145 5.87155 5.99246L11.6586 0.205385C11.7247 0.139341 11.8031 0.0869522 11.8894 0.0512095C11.9757 0.0154668 12.0682 -0.00292969 12.1616 -0.00292969C12.255 -0.00292969 12.3474 0.0154668 12.4337 0.0512095C12.52 0.0869522 12.5984 0.139341 12.6645 0.205385C12.7305 0.271429 12.7829 0.349834 12.8186 0.436125C12.8544 0.522415 12.8728 0.614901 12.8728 0.708301C12.8728 0.801701 12.8544 0.894187 12.8186 0.980477C12.7829 1.06677 12.7305 1.14517 12.6645 1.21122L6.87739 6.99829C6.47944 7.39673 6.25592 7.93683 6.25592 8.49996C6.25592 9.06308 6.47944 9.60318 6.87739 10.0016L12.6645 15.7887C12.7309 15.8545 12.7836 15.9329 12.8195 16.0192C12.8555 16.1055 12.874 16.1981 12.874 16.2916C12.874 16.3851 12.8555 16.4777 12.8195 16.564C12.7836 16.6503 12.7309 16.7287 12.6645 16.7945C12.5983 16.8602 12.5198 16.9121 12.4335 16.9474C12.3472 16.9826 12.2548 17.0005 12.1616 16.9999Z" fill="#353636"/>
</g>
<defs>
<clipPath id="clip0_455_9464">
<rect width="17" height="17" fill="white"/>
</clipPath>
</defs>
</svg>
