<svg width="14" height="14" viewBox="0 0 21 22" fill="none" xmlns="http://www.w3.org/2000/svg">
<path d="M20.6168 18.7662L16.5519 14.6996C19.5934 10.6351 18.7641 4.87446 14.6996 1.83294C10.6351 -1.20857 4.87446 -0.379246 1.83295 3.68527C-1.20857 7.7498 -0.379246 13.5104 3.68527 16.5519C6.95023 18.9951 11.4346 18.9951 14.6996 16.5519L18.7662 20.6185C19.2772 21.1295 20.1057 21.1295 20.6167 20.6185C21.1278 20.1074 21.1278 19.2789 20.6167 18.7679L20.6168 18.7662ZM9.22632 15.767C5.61397 15.767 2.68561 12.8387 2.68561 9.22632C2.68561 5.61397 5.61397 2.68561 9.22632 2.68561C12.8387 2.68561 15.767 5.61397 15.767 9.22632C15.7632 12.837 12.8371 15.7632 9.22632 15.767Z" fill="#374957"/>
</svg>
