<svg width="24" height="24" viewBox="0 0 24 24" fill="none" xmlns="http://www.w3.org/2000/svg">
<g clip-path="url(#clip0_399_11462)">
<path d="M23.1193 0.881892C22.7607 0.519019 22.3147 0.254747 21.8242 0.114608C21.3337 -0.0255306 20.8154 -0.036799 20.3193 0.0818918L4.31925 3.45189C3.39783 3.57826 2.52999 3.95937 1.81346 4.5523C1.09693 5.14524 0.560167 5.92645 0.263629 6.80796C-0.0329088 7.68946 -0.0774484 8.63626 0.135026 9.54171C0.347501 10.4472 0.808551 11.2753 1.46625 11.9329L3.18425 13.6499C3.27724 13.7428 3.35098 13.8532 3.40126 13.9747C3.45153 14.0962 3.47736 14.2264 3.47725 14.3579V17.5259C3.47946 17.9713 3.582 18.4105 3.77725 18.8109L3.76925 18.8179L3.79525 18.8439C4.08827 19.433 4.56684 19.9095 5.15725 20.1999L5.18325 20.2259L5.19025 20.2179C5.59062 20.4131 6.02982 20.5157 6.47525 20.5179H9.64325C9.90831 20.5177 10.1626 20.6227 10.3503 20.8099L12.0673 22.5269C12.5278 22.9925 13.0759 23.3624 13.68 23.6152C14.2842 23.868 14.9324 23.9988 15.5873 23.9999C16.133 23.9992 16.675 23.9101 17.1923 23.7359C18.0657 23.4491 18.8416 22.9239 19.4325 22.2196C20.0234 21.5153 20.4057 20.6599 20.5363 19.7499L23.9113 3.71489C24.0361 3.21453 24.0287 2.69031 23.8899 2.19365C23.7511 1.697 23.4855 1.24496 23.1193 0.881892ZM4.60025 12.2379L2.88125 10.5209C2.48097 10.1303 2.20043 9.63354 2.07254 9.08905C1.94465 8.54456 1.97474 7.97489 2.15925 7.44689C2.33815 6.90522 2.66886 6.42632 3.11205 6.06715C3.55524 5.70799 4.09227 5.48368 4.65925 5.42089L20.5003 2.08589L5.47525 17.1129V14.3579C5.47677 13.9642 5.40022 13.5742 5.25003 13.2103C5.09983 12.8464 4.87899 12.5159 4.60025 12.2379ZM18.5713 19.4079C18.4945 19.9602 18.2653 20.4802 17.9094 20.9095C17.5534 21.3388 17.0849 21.6604 16.5564 21.8382C16.0278 22.0161 15.4602 22.043 14.9172 21.9161C14.3742 21.7892 13.8773 21.5135 13.4823 21.1199L11.7623 19.3999C11.4846 19.1207 11.1544 18.8994 10.7907 18.7487C10.427 18.598 10.037 18.5209 9.64325 18.5219H6.88825L21.9153 3.49989L18.5713 19.4079Z" fill="#353636"/>
</g>
<defs>
<clipPath id="clip0_399_11462">
<rect width="24" height="24" fill="white"/>
</clipPath>
</defs>
</svg>
