<svg width="15" height="15" viewBox="0 0 15 15" fill="none" xmlns="http://www.w3.org/2000/svg">
<g clip-path="url(#clip0_455_8487)">
<path d="M14.897 5.49665C14.7692 5.08971 14.5138 4.73472 14.1685 4.48417C13.8233 4.23362 13.4067 4.10082 12.9801 4.1054H10.2495L9.42014 1.5204C9.28971 1.1135 9.03343 0.758532 8.68824 0.506689C8.34305 0.254847 7.9268 0.119141 7.49951 0.119141C7.07222 0.119141 6.65597 0.254847 6.31078 0.506689C5.96559 0.758532 5.70931 1.1135 5.57889 1.5204L4.74951 4.1054H2.01889C1.59372 4.106 1.17963 4.24095 0.835748 4.49096C0.491865 4.74098 0.235786 5.09327 0.104086 5.49752C-0.0276135 5.90176 -0.0281964 6.33729 0.102421 6.74189C0.233038 7.14649 0.488173 7.49947 0.831385 7.7504L3.05388 9.3754L2.20889 11.9923C2.07233 12.3981 2.0706 12.8373 2.20395 13.2442C2.33731 13.6511 2.5986 14.0041 2.94888 14.2504C3.29317 14.5046 3.71038 14.6408 4.13836 14.6387C4.56633 14.6366 4.98216 14.4962 5.32388 14.2385L7.49951 12.6373L9.67576 14.2366C10.0194 14.4894 10.4344 14.6267 10.861 14.6288C11.2876 14.6309 11.7039 14.4976 12.05 14.2482C12.3961 13.9988 12.6542 13.6461 12.7872 13.2407C12.9202 12.8353 12.9212 12.3983 12.7901 11.9923L11.9451 9.3754L14.1701 7.7504C14.5173 7.50262 14.7754 7.14965 14.9063 6.74374C15.0372 6.33783 15.034 5.90056 14.897 5.49665ZM13.4326 6.74102L10.8426 8.63415C10.7363 8.71175 10.6571 8.82098 10.6165 8.94623C10.5758 9.07149 10.5758 9.20638 10.6164 9.33165L11.6008 12.3754C11.6506 12.5298 11.6501 12.696 11.5995 12.8501C11.5489 13.0042 11.4508 13.1383 11.3192 13.2331C11.1875 13.3279 11.0292 13.3786 10.867 13.3777C10.7048 13.3769 10.547 13.3247 10.4164 13.2285L7.86951 11.3535C7.76224 11.2747 7.63261 11.2322 7.49951 11.2322C7.36641 11.2322 7.23678 11.2747 7.12951 11.3535L4.58263 13.2285C4.45206 13.326 4.29385 13.3793 4.13093 13.3808C3.96801 13.3823 3.80885 13.3318 3.67653 13.2367C3.54421 13.1417 3.4456 13.007 3.39501 12.8521C3.34441 12.6972 3.34446 12.5302 3.39514 12.3754L4.38264 9.33165C4.42321 9.20638 4.42318 9.07149 4.38255 8.94623C4.34192 8.82098 4.26277 8.71175 4.15638 8.63415L1.56639 6.74102C1.43595 6.64552 1.33903 6.51124 1.28947 6.35736C1.23992 6.20349 1.24025 6.03788 1.29044 5.88421C1.34062 5.73054 1.43809 5.59665 1.56891 5.50168C1.69973 5.40671 1.85722 5.35551 2.01889 5.3554H5.20639C5.33871 5.35539 5.46761 5.31339 5.57454 5.23545C5.68147 5.1575 5.76089 5.04762 5.80138 4.92165L6.77013 1.90227C6.81986 1.74776 6.91733 1.61302 7.04851 1.51743C7.17969 1.42184 7.33782 1.37034 7.50014 1.37034C7.66245 1.37034 7.82058 1.42184 7.95176 1.51743C8.08294 1.61302 8.18041 1.74776 8.23013 1.90227L9.19888 4.92165C9.23938 5.04762 9.3188 5.1575 9.42573 5.23545C9.53266 5.31339 9.66156 5.35539 9.79388 5.3554H12.9814C13.143 5.35551 13.3005 5.40671 13.4314 5.50168C13.5622 5.59665 13.6596 5.73054 13.7098 5.88421C13.76 6.03788 13.7604 6.20349 13.7108 6.35736C13.6612 6.51124 13.5643 6.64552 13.4339 6.74102H13.4326Z" fill="#353636"/>
</g>
<defs>
<clipPath id="clip0_455_8487">
<rect width="15" height="15" fill="white"/>
</clipPath>
</defs>
</svg>
