<svg width="24" height="24" viewBox="0 0 24 24" fill="none" xmlns="http://www.w3.org/2000/svg">
<g clip-path="url(#clip0_399_11446)">
<path d="M23.8362 8.79444C23.6316 8.14334 23.223 7.57535 22.6706 7.17448C22.1183 6.7736 21.4516 6.56111 20.7692 6.56844H16.4002L15.0732 2.43244C14.8645 1.7814 14.4545 1.21346 13.9022 0.810508C13.3499 0.407559 12.6839 0.19043 12.0002 0.19043C11.3165 0.19043 10.6505 0.407559 10.0982 0.810508C9.54593 1.21346 9.13587 1.7814 8.92719 2.43244L7.60019 6.56844H3.23119C2.55094 6.56941 1.88838 6.78533 1.33817 7.18535C0.787961 7.58537 0.378234 8.14903 0.167514 8.79583C-0.043205 9.44263 -0.0441377 10.1395 0.16485 10.7868C0.373837 11.4342 0.782054 11.999 1.33119 12.4004L4.88719 15.0004L3.53519 19.1874C3.3167 19.8368 3.31394 20.5394 3.5273 21.1905C3.74067 21.8416 4.15874 22.4063 4.71919 22.8004C5.27004 23.2072 5.93759 23.4251 6.62235 23.4217C7.30711 23.4183 7.97244 23.1937 8.51919 22.7814L12.0002 20.2194L15.4822 22.7784C16.032 23.1829 16.696 23.4026 17.3786 23.4059C18.0611 23.4092 18.7272 23.196 19.281 22.797C19.8347 22.3979 20.2477 21.8335 20.4605 21.1849C20.6733 20.5363 20.6749 19.837 20.4652 19.1874L19.1132 15.0004L22.6732 12.4004C23.2286 12.004 23.6416 11.4392 23.8511 10.7898C24.0605 10.1403 24.0553 9.4407 23.8362 8.79444ZM21.4932 10.7854L17.3492 13.8144C17.179 13.9386 17.0523 14.1134 16.9873 14.3138C16.9223 14.5142 16.9223 14.73 16.9872 14.9304L18.5622 19.8004C18.6419 20.0474 18.6412 20.3134 18.5602 20.56C18.4793 20.8066 18.3222 21.0211 18.1116 21.1728C17.901 21.3245 17.6477 21.4055 17.3882 21.4042C17.1287 21.4029 16.8762 21.3193 16.6672 21.1654L12.5922 18.1654C12.4206 18.0394 12.2132 17.9714 12.0002 17.9714C11.7872 17.9714 11.5798 18.0394 11.4082 18.1654L7.33319 21.1654C7.12428 21.3214 6.87113 21.4067 6.61046 21.409C6.34978 21.4114 6.09513 21.3307 5.88342 21.1786C5.67171 21.0265 5.51394 20.8109 5.43299 20.5631C5.35204 20.3153 5.35211 20.0482 5.43319 19.8004L7.01319 14.9304C7.07811 14.73 7.07806 14.5142 7.01305 14.3138C6.94805 14.1134 6.8214 13.9386 6.65119 13.8144L2.50719 10.7854C2.2985 10.6326 2.14343 10.4178 2.06413 10.1716C1.98484 9.92538 1.98538 9.66042 2.06568 9.41454C2.14597 9.16866 2.30192 8.95445 2.51123 8.8025C2.72055 8.65054 2.97254 8.56863 3.23119 8.56844H8.33119C8.54291 8.56844 8.74916 8.50124 8.92024 8.37652C9.09132 8.2518 9.21841 8.076 9.28319 7.87444L10.8332 3.04344C10.9128 2.79623 11.0687 2.58063 11.2786 2.42769C11.4885 2.27475 11.7415 2.19235 12.0012 2.19235C12.2609 2.19235 12.5139 2.27475 12.7238 2.42769C12.9337 2.58063 13.0896 2.79623 13.1692 3.04344L14.7192 7.87444C14.784 8.076 14.9111 8.2518 15.0821 8.37652C15.2532 8.50124 15.4595 8.56844 15.6712 8.56844H20.7712C21.0299 8.56863 21.2818 8.65054 21.4912 8.8025C21.7005 8.95445 21.8564 9.16866 21.9367 9.41454C22.017 9.66042 22.0175 9.92538 21.9383 10.1716C21.859 10.4178 21.7039 10.6326 21.4952 10.7854H21.4932Z" fill="#353636"/>
</g>
<defs>
<clipPath id="clip0_399_11446">
<rect width="24" height="24" fill="white"/>
</clipPath>
</defs>
</svg>
