<svg width="20" height="20" viewBox="0 0 20 20" fill="none" xmlns="http://www.w3.org/2000/svg">
<path d="M6.4668 5.54253L8.7843 3.2242L8.8018 14.5842C8.8018 15.2746 9.36145 15.8342 10.0518 15.8342C10.7422 15.8342 11.3018 15.2746 11.3018 14.5842L11.2843 3.23838L13.5885 5.54256C14.0681 6.03913 14.8594 6.05288 15.356 5.57327C15.8526 5.09366 15.8663 4.30233 15.3867 3.80576C15.3766 3.79533 15.3664 3.7851 15.356 3.77506L12.6793 1.09838C11.2149 -0.366119 8.84047 -0.366119 7.37598 1.09834L7.37594 1.09838L4.69929 3.77502C4.21968 4.27159 4.23343 5.06292 4.73 5.54253C5.21441 6.01038 5.98238 6.01038 6.4668 5.54253Z" fill="#374957"/>
<path d="M18.75 12.084C18.0597 12.084 17.5 12.6436 17.5 13.334V17.1598C17.4996 17.3479 17.3473 17.5002 17.1592 17.5006H2.84083C2.65278 17.5002 2.50043 17.3479 2.5 17.1598V13.334C2.5 12.6436 1.94036 12.084 1.25 12.084C0.559649 12.084 0 12.6436 0 13.334V17.1598C0.00183594 18.728 1.27266 19.9988 2.84083 20.0006H17.1592C18.7274 19.9988 19.9982 18.728 20 17.1598V13.334C20 12.6436 19.4404 12.084 18.75 12.084Z" fill="#374957"/>
</svg>
