<svg width="70" height="70" viewBox="0 0 70 70" fill="none" xmlns="http://www.w3.org/2000/svg">
<circle cx="35" cy="35" r="34" fill="white" stroke="#C20808" stroke-width="2"/>
<path d="M23.131 27.621H24.984V29.015C24.984 32.143 23.624 34.897 20.632 35.934L19.425 34.149C22.06 33.265 23.131 31.157 23.131 29.015V27.621ZM23.59 27.621H25.426V29.236C25.426 31.123 26.48 32.959 28.945 33.724L27.772 35.475C24.933 34.523 23.59 32.075 23.59 29.236V27.621ZM29.812 26.771H32.073V36.07H29.812V26.771ZM31.444 30.409H34.164V32.279H31.444V30.409ZM26.939 36.427C30.203 36.427 32.26 37.566 32.26 39.47C32.26 41.391 30.203 42.513 26.939 42.513C23.658 42.513 21.601 41.391 21.601 39.47C21.601 37.566 23.658 36.427 26.939 36.427ZM26.939 38.178C24.933 38.178 23.845 38.603 23.845 39.47C23.845 40.354 24.933 40.762 26.939 40.762C28.945 40.762 30.016 40.354 30.016 39.47C30.016 38.603 28.945 38.178 26.939 38.178ZM46.1307 26.788H48.4087V38.263H46.1307V26.788ZM37.9197 40.439H48.7997V42.241H37.9197V40.439ZM37.9197 37.158H40.1807V41.374H37.9197V37.158ZM39.0077 27.638H40.8777V29.168C40.8777 32.245 39.4667 35.084 36.4067 36.155L35.2677 34.353C37.9027 33.452 39.0077 31.259 39.0077 29.168V27.638ZM39.4667 27.638H41.3197V29.168C41.3197 31.225 42.3907 33.248 44.9747 34.081L43.8187 35.883C40.8437 34.88 39.4667 32.211 39.4667 29.168V27.638Z" fill="#C20808"/>
</svg>
