<svg width="98" height="98" viewBox="0 0 98 98" fill="none" xmlns="http://www.w3.org/2000/svg">
<path d="M88.751 41.3777L88.6996 41.375H88.6481H78.3763C77.6718 38.714 76.6027 36.1626 75.1996 33.7928L82.4643 26.5515L82.4766 26.5392L82.4887 26.5267C83.8817 25.0891 84.6536 23.1622 84.6362 21.1609C84.6187 19.1596 83.8134 17.2465 82.3955 15.8333C80.9779 14.4202 79.0616 13.6199 77.0596 13.6025C75.0576 13.5852 73.1277 14.3522 71.6858 15.7404L71.6726 15.7531L71.6597 15.766L64.4031 23.0121C62.0233 21.611 59.461 20.5439 56.7889 19.8411V9.625C56.7889 7.60064 55.982 5.66049 54.5479 4.23103C53.1141 2.80178 51.1707 2 49.1457 2C47.1206 2 45.1773 2.80178 43.7434 4.23103C42.3093 5.66049 41.5025 7.60064 41.5025 9.625V19.8561C38.8303 20.5589 36.268 21.626 33.8882 23.0271L26.6166 15.766L26.6037 15.7531L26.5905 15.7404C25.1486 14.3522 23.2186 13.5852 21.2167 13.6025C19.2147 13.6199 17.2983 14.4202 15.8807 15.8333C14.4629 17.2465 13.6575 19.1596 13.6401 21.1609C13.6226 23.1622 14.3946 25.0891 15.7876 26.5267L15.7997 26.5392L15.812 26.5515L23.0767 33.7928C21.6736 36.1626 20.6045 38.714 19.8999 41.375H9.64321C7.61819 41.375 5.67481 42.1768 4.24093 43.606C2.80684 45.0355 2 46.9756 2 49C2 51.0244 2.80684 52.9645 4.24093 54.394C5.67481 55.8232 7.61819 56.625 9.64321 56.625H19.915C20.6194 59.2855 21.6882 61.8365 23.091 64.2059L15.8133 71.4472L15.8003 71.4601L15.7876 71.4733C14.3946 72.9109 13.6226 74.8378 13.6401 76.8391C13.6575 78.8404 14.4629 80.7535 15.8807 82.1667C17.2983 83.5798 19.2147 84.3801 21.2167 84.3975C23.2186 84.4148 25.1486 83.6478 26.5905 82.2596L26.603 82.2475L26.6153 82.2353L33.8869 74.9871C36.2671 76.3886 38.8298 77.4559 41.5025 78.1589V88.375C41.5025 90.3994 42.3093 92.3395 43.7434 93.769C45.1772 95.1982 47.1206 96 49.1457 96C51.1707 96 53.1141 95.1982 54.5479 93.769C55.982 92.3395 56.7889 90.3994 56.7889 88.375V78.1439C59.4615 77.4409 62.0242 76.3736 64.4044 74.9721L71.676 82.2203L71.6883 82.2325L71.7008 82.2446C73.1428 83.6328 75.0727 84.3998 77.0747 84.3825C79.0767 84.3651 80.993 83.5648 82.4106 82.1517C83.8284 80.7385 84.6338 78.8254 84.6512 76.8241C84.6687 74.8228 83.8968 72.8959 82.5037 71.4583L82.4916 71.4458L82.4793 71.4335L75.2146 64.1922C76.6178 61.8224 77.6868 59.271 78.3914 56.61H88.6481H88.6996L88.751 56.6073C90.7053 56.5067 92.5475 55.6619 93.8969 54.2455C95.2465 52.8289 96 50.9486 96 48.9925C96 47.0364 95.2465 45.1561 93.8969 43.7395C92.5475 42.3231 90.7053 41.4783 88.751 41.3777ZM49.1457 63.875C45.184 63.875 41.3859 62.3063 38.5865 59.5159C35.7874 56.7258 34.216 52.943 34.216 49C34.216 45.057 35.7874 41.2742 38.5865 38.4841C41.3859 35.6937 45.184 34.125 49.1457 34.125C53.1073 34.125 56.9054 35.6937 59.7048 38.4841C62.5039 41.2742 64.0753 45.057 64.0753 49C64.0753 52.943 62.5039 56.7258 59.7048 59.5159C56.9054 62.3063 53.1073 63.875 49.1457 63.875Z" fill="#F2AE29" stroke="url(#paint0_linear_1348_8804)" stroke-width="4"/>
<defs>
<linearGradient id="paint0_linear_1348_8804" x1="49" y1="90.5" x2="49" y2="-1.5" gradientUnits="userSpaceOnUse">
<stop stop-color="#9DC9D7" stop-opacity="0.63"/>
<stop offset="0.9999" stop-color="#8BC4D6" stop-opacity="0.350312"/>
<stop offset="1" stop-color="#F5F5F5" stop-opacity="0"/>
</linearGradient>
</defs>
</svg>
