<svg width="145" height="144" viewBox="0 0 145 144" fill="none" xmlns="http://www.w3.org/2000/svg">
<path fill-rule="evenodd" clip-rule="evenodd" d="M90.227 28.6913C85.2138 20.0152 75.828 14.1758 65.0764 14.1758C49.0509 14.1758 36.0596 27.149 36.0596 43.1522C36.0596 45.1388 36.2598 47.0786 36.6411 48.9528H30.2603C20.6457 48.9528 12.8516 56.7367 12.8516 66.3386C12.8516 75.9406 20.6457 83.7245 30.2603 83.7245H111.51C121.125 83.7245 128.919 75.9406 128.919 66.3386C128.919 58.3188 123.481 51.5673 116.088 49.5601C116.876 47.5764 117.309 45.4135 117.309 43.1494C117.309 33.5475 109.515 25.7636 99.8993 25.7636C96.3203 25.7636 92.9935 26.842 90.227 28.6913Z" fill="#D9D9D9"/>
<path fill-rule="evenodd" clip-rule="evenodd" d="M40.3752 91.0097C40.3752 90.3474 39.8402 89.8105 39.1804 89.8105C38.5205 89.8105 37.9856 90.3474 37.9856 91.0097V93.3276L35.7119 91.1092C35.2388 90.6476 34.4824 90.6582 34.0224 91.1331C33.5624 91.6079 33.5731 92.3671 34.0462 92.8287L37.9856 96.6725V99.3324C37.1959 99.5611 36.4995 100.011 35.9674 100.61L34.1068 99.5323L32.5551 94.04C32.3751 93.4029 31.7145 93.0329 31.0796 93.2135C30.4448 93.3942 30.0761 94.0571 30.2561 94.6943L31.1367 97.8114L29.0245 96.5875C28.4531 96.2564 27.7224 96.4529 27.3924 97.0264C27.0625 97.5999 27.2583 98.3333 27.8297 98.6644L29.8299 99.8234L26.7788 100.69C26.1439 100.871 25.7749 101.534 25.9547 102.171C26.1344 102.808 26.7948 103.178 27.4297 102.998L32.7162 101.496L34.9352 102.782C34.8983 103.009 34.8791 103.243 34.8791 103.48C34.8791 103.958 34.9563 104.417 35.0988 104.846L32.912 106.114L27.3968 104.716C26.757 104.554 26.1074 104.943 25.9458 105.585C25.7843 106.227 26.172 106.879 26.8118 107.041L29.9419 107.834L27.8297 109.058C27.2583 109.389 27.0625 110.123 27.3924 110.696C27.7224 111.27 28.4531 111.466 29.0245 111.135L31.0247 109.976L30.2472 113.062C30.0854 113.704 30.4729 114.356 31.1126 114.518C31.7523 114.68 32.4021 114.292 32.5639 113.65L33.911 108.304L36.4617 106.826C36.9048 107.189 37.4214 107.465 37.9856 107.629V110.541L34.0221 114.636C33.5623 115.111 33.5732 115.87 34.0466 116.332C34.5199 116.793 35.2763 116.782 35.7361 116.307L37.9856 113.983V116.431C37.9856 117.093 38.5205 117.63 39.1804 117.63C39.8402 117.63 40.3752 117.093 40.3752 116.431V114.113L42.6488 116.331C43.1219 116.793 43.8783 116.782 44.3383 116.307C44.7983 115.833 44.7876 115.073 44.3145 114.612L40.3752 110.768V107.629C40.9662 107.457 41.5049 107.162 41.9616 106.774L44.407 108.19L45.9587 113.683C46.1387 114.32 46.7993 114.69 47.4342 114.509C48.069 114.329 48.4377 113.666 48.2577 113.029L47.377 109.911L49.4892 111.135C50.0607 111.466 50.7914 111.27 51.1214 110.696C51.4513 110.123 51.2555 109.389 50.684 109.058L48.6838 107.899L51.735 107.032C52.3699 106.852 52.7389 106.189 52.5591 105.552C52.3794 104.915 51.719 104.545 51.084 104.725L45.7976 106.227L43.2859 104.772C43.4131 104.364 43.4816 103.93 43.4816 103.48C43.4816 103.271 43.4668 103.065 43.438 102.863L45.6018 101.609L51.117 103.007C51.7568 103.169 52.4064 102.78 52.568 102.138C52.7295 101.496 52.3418 100.844 51.702 100.681L48.5718 99.8884L50.684 98.6645C51.2555 98.3333 51.4513 97.6 51.1214 97.0265C50.7914 96.4529 50.0607 96.2564 49.4892 96.5875L47.489 97.7465L48.2666 94.6612C48.4283 94.0192 48.0409 93.3671 47.4012 93.2047C46.7614 93.0423 46.1117 93.4311 45.9499 94.0732L44.6028 99.419L42.4447 100.669C41.9064 100.04 41.1905 99.5685 40.3752 99.3324V96.8993L44.3386 92.8045C44.7984 92.3295 44.7875 91.5703 44.3142 91.1089C43.8408 90.6474 43.0844 90.6584 42.6246 91.1334L40.3752 93.4574V91.0097ZM41.092 103.48C41.092 104.54 40.2361 105.399 39.1804 105.399C38.1246 105.399 37.2687 104.54 37.2687 103.48C37.2687 102.421 38.1246 101.562 39.1804 101.562C40.2361 101.562 41.092 102.421 41.092 103.48ZM104.759 89.8107C105.418 89.8107 105.953 90.3476 105.953 91.0099V93.4576L108.203 91.1336C108.663 90.6586 109.419 90.6476 109.892 91.109C110.366 91.5705 110.377 92.3296 109.917 92.8047L105.953 96.8995V99.3326C106.769 99.5687 107.485 100.04 108.023 100.67L110.181 99.4191L111.528 94.0734C111.69 93.4313 112.34 93.0425 112.979 93.2049C113.619 93.3672 114.007 94.0193 113.845 94.6614L113.067 97.7467L115.068 96.5877C115.639 96.2566 116.37 96.4531 116.7 97.0266C117.03 97.6002 116.834 98.3335 116.262 98.6647L114.15 99.8885L117.28 100.682C117.92 100.844 118.308 101.496 118.146 102.138C117.985 102.78 117.335 103.169 116.695 103.007L111.18 101.609L109.016 102.863C109.045 103.065 109.06 103.271 109.06 103.481C109.06 103.93 108.991 104.364 108.864 104.772L111.376 106.227L116.662 104.725C117.297 104.545 117.958 104.915 118.137 105.552C118.317 106.189 117.948 106.852 117.313 107.033L114.262 107.9L116.262 109.059C116.834 109.39 117.03 110.123 116.7 110.697C116.37 111.27 115.639 111.467 115.068 111.135L112.955 109.912L113.836 113.029C114.016 113.666 113.647 114.329 113.012 114.509C112.378 114.69 111.717 114.32 111.537 113.683L109.985 108.191L107.54 106.774C107.083 107.163 106.544 107.458 105.953 107.629V110.768L109.893 114.612C110.366 115.074 110.377 115.833 109.917 116.308C109.457 116.783 108.7 116.793 108.227 116.332L105.953 114.113V116.431C105.953 117.093 105.418 117.63 104.759 117.63C104.099 117.63 103.564 117.093 103.564 116.431V113.983L101.314 116.307C100.855 116.782 100.098 116.793 99.6248 116.332C99.1515 115.87 99.1405 115.111 99.6003 114.636L103.564 110.541V107.629C103 107.465 102.483 107.189 102.04 106.826L99.4893 108.304L98.1422 113.65C97.9804 114.292 97.3306 114.681 96.6909 114.518C96.0511 114.356 95.6637 113.704 95.8255 113.062L96.603 109.976L94.6028 111.135C94.0313 111.467 93.3006 111.27 92.9707 110.697C92.6407 110.123 92.8365 109.39 93.408 109.058L95.5202 107.835L92.3901 107.041C91.7503 106.879 91.3626 106.227 91.5241 105.585C91.6856 104.943 92.3352 104.554 92.975 104.716L98.4902 106.114L100.677 104.847C100.535 104.417 100.457 103.958 100.457 103.481C100.457 103.243 100.477 103.009 100.513 102.782L98.2945 101.496L93.008 102.998C92.3731 103.178 91.7127 102.808 91.5329 102.171C91.3532 101.534 91.7222 100.871 92.3571 100.691L95.4082 99.8236L93.408 98.6646C92.8365 98.3335 92.6407 97.6001 92.9707 97.0266C93.3006 96.4531 94.0313 96.2566 94.6028 96.5877L96.715 97.8116L95.8343 94.6944C95.6543 94.0573 96.0231 93.3944 96.6579 93.2137C97.2927 93.033 97.9533 93.4031 98.1333 94.0402L99.685 99.5325L101.546 100.611C102.078 100.011 102.774 99.5613 103.564 99.3326V96.6727L99.6245 92.8289C99.1513 92.3673 99.1407 91.6081 99.6007 91.1333C100.061 90.6584 100.817 90.6477 101.29 91.1094L103.564 93.3278V91.0099C103.564 90.3476 104.099 89.8107 104.759 89.8107ZM104.759 105.399C105.814 105.399 106.67 104.54 106.67 103.481C106.67 102.421 105.814 101.562 104.759 101.562C103.703 101.562 102.847 102.421 102.847 103.481C102.847 104.54 103.703 105.399 104.759 105.399ZM72.2597 97.6351C72.9195 97.6351 73.4545 98.1719 73.4545 98.8342V101.282L75.7039 98.9579C76.1637 98.4829 76.9202 98.4719 77.3935 98.9334C77.8668 99.3948 77.8777 100.154 77.418 100.629L73.4545 104.724V107.157C74.2699 107.393 74.9857 107.865 75.5241 108.494L77.6821 107.243L79.0292 101.898C79.191 101.256 79.8408 100.867 80.4805 101.029C81.1202 101.192 81.5077 101.844 81.3459 102.486L80.5684 105.571L82.5686 104.412C83.14 104.081 83.8708 104.277 84.2007 104.851C84.5306 105.424 84.3348 106.158 83.7634 106.489L81.6512 107.713L84.7813 108.506C85.4211 108.668 85.8088 109.32 85.6473 109.962C85.4857 110.604 84.8361 110.993 84.1963 110.831L78.6812 109.434L76.5173 110.688C76.5461 110.889 76.561 111.095 76.561 111.305C76.561 111.755 76.4924 112.188 76.3653 112.596L78.8769 114.051L84.1634 112.549C84.7983 112.369 85.4587 112.739 85.6384 113.377C85.8182 114.014 85.4492 114.677 84.8143 114.857L81.7632 115.724L83.7634 116.883C84.3348 117.214 84.5306 117.947 84.2007 118.521C83.8708 119.094 83.14 119.291 82.5686 118.96L80.4564 117.736L81.337 120.853C81.517 121.49 81.1483 122.153 80.5135 122.334C79.8786 122.514 79.2181 122.144 79.0381 121.507L77.4864 116.015L75.041 114.598C74.5842 114.987 74.0455 115.282 73.4545 115.453V118.593L77.3938 122.436C77.8669 122.898 77.8776 123.657 77.4176 124.132C76.9576 124.607 76.2012 124.618 75.7281 124.156L73.4545 121.937V124.255C73.4545 124.918 72.9195 125.455 72.2597 125.455C71.5998 125.455 71.0649 124.918 71.0649 124.255V121.808L68.8154 124.132C68.3556 124.607 67.5992 124.618 67.1259 124.156C66.6526 123.695 66.6416 122.936 67.1014 122.461L71.0649 118.366V115.453C70.5007 115.29 69.9841 115.013 69.5411 114.65L66.9904 116.128L65.6432 121.474C65.4814 122.116 64.8317 122.505 64.1919 122.343C63.5522 122.18 63.1648 121.528 63.3266 120.886L64.1041 117.801L62.1039 118.96C61.5324 119.291 60.8017 119.094 60.4717 118.521C60.1418 117.947 60.3376 117.214 60.9091 116.883L63.0213 115.659L59.8911 114.866C59.2513 114.704 58.8636 114.052 59.0252 113.41C59.1867 112.768 59.8363 112.378 60.4761 112.541L65.9913 113.938L68.1781 112.671C68.0356 112.242 67.9584 111.782 67.9584 111.305C67.9584 111.067 67.9776 110.834 68.0145 110.606L65.7956 109.32L60.5091 110.822C59.8741 111.003 59.2137 110.632 59.034 109.995C58.8542 109.358 59.2232 108.695 59.8581 108.515L62.9093 107.648L60.9091 106.489C60.3376 106.158 60.1418 105.424 60.4717 104.851C60.8017 104.277 61.5324 104.081 62.1039 104.412L64.2161 105.636L63.3354 102.519C63.1554 101.882 63.5241 101.219 64.159 101.038C64.7938 100.857 65.4544 101.227 65.6344 101.865L67.1861 107.357L69.0467 108.435C69.5788 107.835 70.2752 107.386 71.0649 107.157V104.497L67.1255 100.653C66.6524 100.192 66.6417 99.4324 67.1017 98.9576C67.5617 98.4828 68.3181 98.4721 68.7913 98.9337L71.0649 101.152V98.8342C71.0649 98.1719 71.5998 97.6351 72.2597 97.6351ZM72.2597 113.224C73.3155 113.224 74.1714 112.365 74.1714 111.305C74.1714 110.245 73.3155 109.386 72.2597 109.386C71.2039 109.386 70.348 110.245 70.348 111.305C70.348 112.365 71.2039 113.224 72.2597 113.224Z" fill="#56A7E1"/>
</svg>
