<svg width="144" height="145" viewBox="0 0 144 145" fill="none" xmlns="http://www.w3.org/2000/svg">
<path d="M129.883 40.3032C130.756 39.8342 131.805 40.4664 131.726 41.4529C131.393 45.6205 130.113 49.6679 127.97 53.2822C125.453 57.5261 121.841 61.0169 117.51 63.3895C113.179 65.7621 108.289 66.9293 103.351 66.7689C98.4134 66.6085 93.6097 65.1264 89.4424 62.4778C85.2752 59.8291 81.8976 56.1111 79.6629 51.7129C77.4283 47.3147 76.4188 42.3977 76.74 37.4766C77.0612 32.5554 78.7013 27.8108 81.4887 23.7392C83.8639 20.2699 86.9977 17.3978 90.6421 15.3332C91.5039 14.845 92.5218 15.5298 92.4697 16.5179C91.4294 36.2827 112.431 49.6822 129.883 40.3032Z" fill="#EEA765"/>
<path fill-rule="evenodd" clip-rule="evenodd" d="M78.4226 38.3858C74.2864 31.2283 66.5436 26.4111 57.6742 26.4111C44.4531 26.4111 33.7353 37.1148 33.7353 50.3185C33.7353 51.956 33.9002 53.555 34.2142 55.0999H28.9492C21.0166 55.0999 14.5859 61.5221 14.5859 69.4443C14.5859 77.3665 21.0166 83.7887 28.9492 83.7887H95.978C103.911 83.7887 110.341 77.3665 110.341 69.4443C110.341 62.8288 105.857 57.2593 99.7585 55.602C100.409 53.9658 100.766 52.1818 100.766 50.3145C100.766 42.3923 94.3352 35.97 86.4025 35.97C83.4497 35.97 80.705 36.8599 78.4226 38.3858Z" fill="#D9D9D9"/>
</svg>
