<svg width="145" height="145" viewBox="0 0 145 145" fill="none" xmlns="http://www.w3.org/2000/svg">
<path d="M127.592 41.8622C127.592 57.0664 115.25 69.3919 100.026 69.3919C84.8017 69.3919 72.46 57.0664 72.46 41.8622C72.46 26.658 84.8017 14.3325 100.026 14.3325C115.25 14.3325 127.592 26.658 127.592 41.8622Z" fill="#EEA765"/>
<path fill-rule="evenodd" clip-rule="evenodd" d="M78.8435 38.3859C74.7074 31.2283 66.9646 26.4111 58.0951 26.4111C44.874 26.4111 34.1562 37.1148 34.1562 50.3185C34.1562 51.956 34.3211 53.5551 34.6351 55.1001H29.3701C21.4375 55.1001 15.0068 61.5223 15.0068 69.4445C15.0068 77.3667 21.4375 83.7889 29.3701 83.7889H96.3989C104.332 83.7889 110.762 77.3667 110.762 69.4445C110.762 62.829 106.278 57.2594 100.179 55.6021C100.829 53.9659 101.187 52.1819 101.187 50.3146C101.187 42.3924 94.7561 35.9702 86.8234 35.9702C83.8706 35.9702 81.1259 36.8601 78.8435 38.3859Z" fill="#D9D9D9"/>
</svg>
