<svg width="98" height="99" viewBox="0 0 98 99" fill="none" xmlns="http://www.w3.org/2000/svg">
<path d="M36.988 2.35773L37.2828 4.33588L36.988 2.35773ZM36.988 2.35773C30.3456 3.34771 24.1787 6.38911 19.3499 11.0565C14.5235 15.7216 11.2752 21.7779 10.0587 28.379C8.90408 34.3268 9.44042 40.4679 11.59 46.1092C8.0486 48.7257 5.29881 52.2873 3.6665 56.4008C1.82602 61.0388 1.50064 66.1403 2.73696 70.9745L2.73929 70.9834C3.64935 74.4748 5.38535 77.6962 7.80095 80.3763C8.51587 81.1747 9.39104 81.8136 10.3694 82.2511C11.349 82.6892 12.41 82.9157 13.4831 82.9157L13.4832 80.9157M36.988 2.35773C44.8858 1.17997 52.9417 2.93259 59.6364 7.28509C66.0165 11.433 70.7401 17.6689 73.0123 24.9072C80.7652 27.3287 87.3659 32.5334 91.5274 39.5392L91.5497 39.5767L91.5704 39.6153C92.5024 41.3529 92.7253 43.384 92.1922 45.2824C91.6591 47.1808 90.4115 48.799 88.7112 49.7975C87.0109 50.796 84.9899 51.0972 83.0723 50.6379C81.1547 50.1786 79.4895 48.9945 78.426 47.3341L78.4078 47.3055L78.3905 47.2764C77.0377 44.9978 75.1875 43.0544 72.978 41.5916C70.769 40.129 68.2582 39.1846 65.633 38.8288C63.9741 38.6075 62.434 37.8468 61.2501 36.6638C60.0656 35.4802 59.3035 33.9396 59.0814 32.2798L59.0811 32.2778C58.7804 30.012 58.0311 27.8288 56.877 25.8559C55.723 23.8831 54.1873 22.16 52.3596 20.7874L52.3571 20.7855C50.495 19.3824 48.3717 18.3649 46.1115 17.7924C43.8518 17.2201 41.5007 17.1043 39.1956 17.4516C35.7012 17.9829 32.46 19.5925 29.9248 22.0555C27.3894 24.5187 25.6868 27.7124 25.0549 31.1904L25.0523 31.2048L25.0494 31.2192C24.3096 34.9767 24.8447 38.8733 26.5695 42.292C27.9701 44.9298 28.2711 48.0146 27.4064 50.8739C26.5394 53.7406 24.5712 56.1466 21.9332 57.5646L21.9069 57.5788L21.8802 57.5921C20.1704 58.4465 18.805 59.8611 18.0118 61.6001C17.2186 63.3391 17.0454 65.2974 17.5211 67.1486L13.4832 80.9157M13.4832 80.9157L13.4846 82.9157C14.9565 82.9147 16.3967 82.4878 17.6314 81.6865C18.8662 80.8852 19.8427 79.7437 20.4431 78.3998C21.0436 77.0559 21.2423 75.567 21.0154 74.1127C20.7885 72.6583 20.1457 71.3007 19.1644 70.2036L19.1584 70.1969M13.4832 80.9157L19.1584 70.1969M19.1584 70.1969C18.3743 69.3281 17.8125 68.2822 17.5211 67.1488L19.1584 70.1969ZM74.6705 96.046H74.6893L74.7081 96.0457C76.2394 96.0169 77.7638 95.8326 79.2578 95.4956C83.9478 94.4645 88.1524 91.8802 91.1905 88.1614C94.2299 84.4412 95.9237 79.8035 95.9975 75.0001C96.0713 70.1967 94.5207 65.5092 91.5971 61.6974C88.6735 57.8855 84.5482 55.1727 79.89 53.9987L79.8361 53.9851L79.7815 53.9746C79.7183 53.9623 79.6555 53.9488 79.5929 53.9341C77.328 49.1839 73.635 45.2496 69.0199 42.6893C64.1374 39.9807 58.4965 38.9616 52.9748 39.7907L52.9659 39.7921L52.957 39.7935C47.19 40.7128 41.929 43.6285 38.0926 48.0314C34.2562 52.4344 32.0882 58.0449 31.9669 63.8835L31.9669 63.8865C31.9507 64.7231 31.9779 65.5598 32.0481 66.393C29.6878 67.8516 27.7403 69.9044 26.4073 72.3564C24.8475 75.2256 24.2038 78.5037 24.563 81.7497C24.9221 84.9957 26.2669 88.0538 28.4162 90.5126C30.5641 92.9696 33.4125 94.7104 36.5787 95.5011C37.8876 95.8358 39.2308 96.0185 40.5816 96.0456L40.6016 96.046H40.6217H74.6705ZM75.9565 80.6035L75.9332 80.6083L75.91 80.6136C75.4564 80.718 74.9938 80.7789 74.5286 80.7952H40.8937C40.6368 80.7561 40.3923 80.6571 40.1801 80.5059C40.0062 80.382 39.8584 80.2262 39.7442 80.0474C39.7541 79.9617 39.7994 79.8426 39.9329 79.6708C40.1751 79.359 40.5588 79.0951 40.8432 78.9766L40.847 78.975C43.2613 77.9633 45.244 76.1364 46.4496 73.8129C47.6552 71.4893 48.0073 68.8164 47.4444 66.2599L47.4441 66.2587C47.2937 65.5775 47.225 64.8809 47.2393 64.1835C47.2921 61.9509 48.1154 59.8052 49.5696 58.1103C51.0179 56.4222 53.0032 55.2847 55.1913 54.8886C55.6782 54.8181 56.1694 54.7816 56.6614 54.7793L56.6736 54.7792C58.6353 54.7579 60.56 55.3138 62.2082 56.3778C63.8528 57.4394 65.1498 58.9602 65.9386 60.7515C66.8278 62.8519 68.2375 64.6912 70.0347 66.0959C71.8157 67.4879 73.9189 68.4075 76.1493 68.77C77.4744 69.0873 78.6547 69.8421 79.4989 70.9134C80.3558 72.0008 80.8146 73.3488 80.7991 74.7331C80.7836 76.1175 80.2947 77.4549 79.4137 78.5229C78.5327 79.5908 77.3127 80.3251 75.9565 80.6035Z" fill="url(#paint0_linear_1348_8805)" stroke="url(#paint1_linear_1348_8805)" stroke-width="4"/>
<defs>
<linearGradient id="paint0_linear_1348_8805" x1="49" y1="94" x2="49" y2="4" gradientUnits="userSpaceOnUse">
<stop stop-color="#DEEFFC"/>
<stop offset="1" stop-color="#DEEFFC" stop-opacity="0.69"/>
</linearGradient>
<linearGradient id="paint1_linear_1348_8805" x1="49" y1="98" x2="49" y2="3.99999" gradientUnits="userSpaceOnUse">
<stop stop-color="#76BED6" stop-opacity="0.57"/>
<stop offset="1" stop-color="#83C6DB" stop-opacity="0.15"/>
</linearGradient>
</defs>
</svg>
