<svg width="145" height="145" viewBox="0 0 145 145" fill="none" xmlns="http://www.w3.org/2000/svg">
<path fill-rule="evenodd" clip-rule="evenodd" d="M90.3022 28.848C85.289 20.1719 75.9032 14.3325 65.1516 14.3325C49.1261 14.3325 36.1348 27.3057 36.1348 43.3089C36.1348 45.2955 36.335 47.2354 36.7163 49.1096H30.3355C20.7209 49.1096 12.9268 56.8935 12.9268 66.4954C12.9268 76.0974 20.7209 83.8813 30.3355 83.8813H111.585C121.2 83.8813 128.994 76.0974 128.994 66.4954C128.994 58.4756 123.557 51.7241 116.163 49.7169C116.951 47.7332 117.385 45.5702 117.385 43.3061C117.385 33.7042 109.59 25.9203 99.9745 25.9203C96.3955 25.9203 93.0687 26.9988 90.3022 28.848Z" fill="#D9D9D9"/>
</svg>
