<svg width="86" height="82" viewBox="0 0 86 82" fill="none" xmlns="http://www.w3.org/2000/svg">
<path d="M83.1136 39.9285C84.477 39.1833 86.1166 40.1877 85.9935 41.7551C85.4734 48.3765 83.4724 54.8069 80.1244 60.5493C76.1932 67.292 70.5494 72.8382 63.7834 76.6078C57.0175 80.3773 49.378 82.2317 41.6642 81.9769C33.9504 81.722 26.4458 79.3673 19.9355 75.1591C13.4253 70.951 8.14858 65.0439 4.65753 58.056C1.16647 51.0682 -0.410659 43.2562 0.0911294 35.4375C0.592918 27.6188 3.15518 20.0807 7.50987 13.6118C11.2204 8.09966 16.1162 3.53648 21.8097 0.25631C23.1561 -0.519393 24.7462 0.568619 24.665 2.13862C23.0396 33.5407 55.8497 54.8296 83.1136 39.9285Z" fill="#EEA765"/>
</svg>
