<svg width="145" height="144" viewBox="0 0 145 144" fill="none" xmlns="http://www.w3.org/2000/svg">
<path fill-rule="evenodd" clip-rule="evenodd" d="M90.3023 28.6913C85.289 20.0152 75.9032 14.1758 65.1516 14.1758C49.1261 14.1758 36.1348 27.149 36.1348 43.1522C36.1348 45.1388 36.335 47.0786 36.7163 48.9528H30.3355C20.7209 48.9528 12.9268 56.7367 12.9268 66.3386C12.9268 75.9406 20.7209 83.7245 30.3355 83.7245H111.585C121.2 83.7245 128.994 75.9406 128.994 66.3386C128.994 58.3189 123.557 51.5673 116.163 49.5601C116.951 47.5764 117.385 45.4135 117.385 43.1494C117.385 33.5475 109.59 25.7636 99.9746 25.7636C96.3955 25.7636 93.0687 26.8421 90.3023 28.6913Z" fill="#D9D9D9"/>
<path fill-rule="evenodd" clip-rule="evenodd" d="M38.9883 89.8096L47.0854 104.978C50.1437 110.707 45.9922 117.629 39.4979 117.629C33.2027 117.629 29.0404 111.088 31.7064 105.386L38.9883 89.8096ZM71.4872 97.6339L79.5843 112.802C82.6426 118.531 78.4912 125.453 71.9968 125.453C65.7017 125.453 61.5393 118.913 64.2054 113.21L71.4872 97.6339ZM112.083 104.978L103.986 89.8096L96.7043 105.386C94.0383 111.088 98.2006 117.629 104.496 117.629C110.99 117.629 115.142 110.707 112.083 104.978Z" fill="#56A7E1"/>
</svg>
