<svg width="93" height="98" viewBox="0 0 93 98" fill="none" xmlns="http://www.w3.org/2000/svg">
<path d="M75.3003 85.7697C69.9079 89.5162 63.7611 92.0372 57.2911 93.156C50.821 94.2747 44.1845 93.9639 37.8473 92.2456C31.5101 90.5272 25.6258 87.4428 20.6071 83.2089C15.5885 78.975 11.5572 73.6941 8.79609 67.7368C6.03501 61.7795 4.61107 55.2901 4.62417 48.7241C4.63727 42.1581 6.08711 35.6744 8.87194 29.7282C11.6568 23.782 15.7091 18.5172 20.7446 14.3034C25.7801 10.0895 31.6768 7.02864 38.0208 5.33558C39.9194 4.82643 41.9197 4.83591 43.8134 5.36303C45.707 5.89015 47.4246 6.91562 48.787 8.33251C50.1494 9.7494 51.1067 11.5058 51.5592 13.4187C52.0118 15.3315 51.9428 17.3307 51.3597 19.2079C44.0248 42.1873 53.935 56.3935 77.9632 57.5559C79.9259 57.6676 81.8226 58.3038 83.4557 59.3981C85.0888 60.4925 86.3983 62.005 87.2478 63.7778C88.0973 65.5506 88.4556 67.5189 88.2853 69.4773C88.115 71.4358 87.4225 73.3127 86.2798 74.9124C83.2615 79.1274 79.5488 82.7988 75.3003 85.7697V85.7697ZM30.4124 21.0655C26.3785 23.8574 23.0017 27.4951 20.5173 31.7254C18.0328 35.9556 16.5005 40.6766 16.027 45.5596C15.5535 50.4425 16.1502 55.37 17.7755 59.9987C19.4009 64.6275 22.0158 68.8463 25.4381 72.3613C28.8605 75.8762 33.008 78.6028 37.5917 80.3511C42.1754 82.0995 47.0852 82.8275 51.979 82.4845C56.8729 82.1415 61.6331 80.7358 65.9282 78.3652C70.2232 75.9945 73.9498 72.7161 76.8484 68.7581C45.9605 67.0694 31.2709 45.7501 40.4764 16.3292C36.8905 17.3607 33.4928 18.9597 30.4124 21.0655V21.0655Z" fill="#F2AE29"/>
<path d="M37.5034 3.40367C30.8781 5.17207 24.72 8.36879 19.4611 12.7696C14.2018 17.1707 9.96934 22.6695 7.06074 28.88C4.15214 35.0905 2.63786 41.8622 2.62417 48.7201C2.61049 55.5779 4.09772 62.3557 6.98151 68.5778C9.8653 74.7999 14.0758 80.3155 19.3175 84.7376C24.5592 89.1597 30.7051 92.3811 37.3239 94.1758C43.9428 95.9706 50.8742 96.2951 57.6318 95.1267C64.3894 93.9583 70.8095 91.3252 76.4414 87.4122L75.3003 85.7697L76.4464 87.4088C80.8807 84.308 84.7557 80.4761 87.9059 76.0767L87.9072 76.0749C89.2579 74.1841 90.0765 71.9655 90.2778 69.6506C90.4791 67.3356 90.0556 65.0091 89.0515 62.9135C88.0474 60.818 86.4994 59.0302 84.5691 57.7367C82.6388 56.4431 80.3967 55.6911 78.0768 55.5592L78.0683 55.5587L78.0598 55.5583C66.3762 54.993 58.6147 51.2828 54.5428 45.4221C50.4713 39.562 49.6983 30.9899 53.265 19.816L53.2673 19.8086L53.2696 19.8012C53.9589 17.5824 54.0404 15.2193 53.5055 12.9583C52.9707 10.6972 51.839 8.62108 50.2286 6.94628C48.6182 5.27149 46.588 4.05936 44.3497 3.43629C42.1116 2.81327 39.7473 2.80201 37.5034 3.40367ZM37.5034 3.40367C37.504 3.40351 37.5045 3.40336 37.5051 3.40321L38.0208 5.33558L37.5028 3.40384C37.503 3.40378 37.5032 3.40372 37.5034 3.40367ZM37.5083 19.4838C34.0956 33.0607 35.7252 45.0435 41.983 54.0817C48.2461 63.1275 58.904 68.8755 72.8725 70.4355C70.5852 72.8958 67.9165 74.9833 64.9617 76.6142C60.9212 78.8443 56.443 80.1667 51.8392 80.4894C47.2354 80.8121 42.6166 80.1272 38.3044 78.4825C33.9923 76.8377 30.0906 74.2727 26.8711 70.9661C23.6516 67.6594 21.1916 63.6906 19.6626 59.3361C18.1335 54.9817 17.5722 50.3462 18.0177 45.7526C18.4631 41.159 19.9046 36.7178 22.2418 32.7382C24.578 28.7603 27.753 25.3393 31.5458 22.7133C33.4197 21.4328 35.4181 20.3512 37.5083 19.4838Z" stroke="url(#paint0_linear_1348_8803)" stroke-opacity="0.38" stroke-width="4"/>
<defs>
<linearGradient id="paint0_linear_1348_8803" x1="42.9065" y1="97.2085" x2="40.4065" y2="5.70849" gradientUnits="userSpaceOnUse">
<stop stop-color="#CFA551"/>
<stop offset="1" stop-color="#CFA551" stop-opacity="0"/>
</linearGradient>
</defs>
</svg>
