<svg width="100" height="100" viewBox="0 0 100 100" fill="none" xmlns="http://www.w3.org/2000/svg">
<circle cx="50" cy="50" r="50" fill="white"/>
<path fill-rule="evenodd" clip-rule="evenodd" d="M50.5448 99.9971C50.3634 99.999 50.1818 100 50 100C49.8182 100 49.6366 99.999 49.4552 99.9971H50.5448ZM85.3885 85.3221C81.847 88.8703 76.0838 86.4139 73.4528 82.1467C68.5005 74.1147 59.6265 68.7583 49.5 68.7471C39.5881 68.7582 30.8761 73.8902 25.8672 81.6398C23.1462 85.8498 17.3318 88.1819 13.8666 84.5598C5.27669 75.5813 0 63.4069 0 50C0 22.3858 22.3858 0 50 0C77.6142 0 100 22.3858 100 50C100 63.7902 94.4172 76.2765 85.3885 85.3221ZM49.5 62.5C59.8553 62.5 68.25 54.1053 68.25 43.75C68.25 33.3947 59.8553 25 49.5 25C39.1447 25 30.75 33.3947 30.75 43.75C30.75 54.1053 39.1447 62.5 49.5 62.5Z" fill="#A574EE"/>
</svg>
