<svg width="200" height="200" viewBox="0 0 200 200" fill="none" xmlns="http://www.w3.org/2000/svg">
<circle cx="100" cy="100" r="100" fill="white"/>
<path fill-rule="evenodd" clip-rule="evenodd" d="M101.09 199.994C100.727 199.998 100.364 200 100 200C99.6363 200 99.2731 199.998 98.9104 199.994H101.09ZM162.932 177.719C159.038 180.876 153.361 178.442 151.576 173.757C143.503 152.574 123.012 137.521 99 137.494C75.4123 137.521 55.2222 152.047 46.8636 172.64C44.9783 177.285 39.2515 179.597 35.4255 176.358C13.7567 158.015 0 130.614 0 100C0 44.7715 44.7715 0 100 0C155.228 0 200 44.7715 200 100C200 131.381 185.546 159.385 162.932 177.719ZM99 125C119.711 125 136.5 108.211 136.5 87.5C136.5 66.7893 119.711 50 99 50C78.2893 50 61.5 66.7893 61.5 87.5C61.5 108.211 78.2893 125 99 125Z" fill="#4876EF"/>
</svg>
